<svg id="Layer_1" data-name="Layer 1" xmlns="http://www.w3.org/2000/svg" viewBox="0 0 51.54 51.14"><defs><style>.cls-1{fill:#261109;}.cls-2{fill:#f3bf23;}.cls-3{fill:#e3c448;}.cls-4{fill:#8a5b20;}.cls-5{fill:#e7d984;}.cls-6{fill:#c9c7b8;}.cls-7{fill:#ccc889;}.cls-8{fill:#534c24;}.cls-9{fill:#b38a2a;}.cls-10{fill:#2b2b19;}</style></defs><title>Big_Bird</title><path class="cls-1" d="M665.8,362c1.81-2,3.72-2.22,3.22-1.07l1.35-.81c1.53-1.24,3.94-.7,2.7.46-.12.11.78.39,1.34,0,2.34-1.6,3.13-1.35,4.69-1.67,3.29,0,.65,1.9.14,2.28-2,1.49.17,1.67,1.09,1.29,1.91-.8,5.65-.9,1.6,2.7-1.5,1.33,7.48-.84,1.36,3.2l.75,2.08c.45,1.27,1.58,2.14,2.61,1.35s1.6-1.71,2.52-2.41a17.4,17.4,0,0,1,2.18-1.21c0,.33-.36,1.49-.36,1.82a2.46,2.46,0,0,0-2,3c-1.32-.33-2,.63-2.88,1.33-1.39,1.1-3.78,1-4.08-.12-.44-1.62-.64-3.31-1.06-4.94-.12-.47-.63-.84-1-1.26-.47-5.38-7.09-7.62-11-5-4.87,3.28-5.31,8.51-6,13.63,1.32,1.68.35,4,1.17,5.46s.36,3.18,1,4.56c3.34,6.78,8.75,10.76,16,11.27,2.8.19,5.63,0,8.45.07.43,0,4,1.19-.18,1a21.74,21.74,0,0,0-2.9,0,9.52,9.52,0,0,0-1.55.55,5.15,5.15,0,0,0,1.28.41c1.29.05,2.59,0,3.88,0,.26,0,.5-.32.75-.49-.16-.16-.31-.45-.49-.46-.8-.05-1.61,0-1,0,2.28,0,3.11,0,3.93,0,1.21-.07,2.18-1.38,1.49-2.18-1.94-2.23-3.38-5.07-7.2-4.9a18.09,18.09,0,0,1-7.37-1.17,12.61,12.61,0,0,1-6.91-6.83,10.24,10.24,0,0,1-.43-3.26c0-.16.46-.53.56-.48a2,2,0,0,1,.71.66c.26.38.47.79.7,1.19l1,1,1,1,1,1c.24.61.18,1.52,1.62,1.69,1.24.14,2.36,1,2.92-.69,0-.05.36-.07.47,0a8,8,0,0,0,1.92,1.36,17.36,17.36,0,0,0,3.74.59c.41,0,.86-.29,1.29-.45l-.66-.7c-.59-.59-1.14-1.22-1.77-1.75-.87-.73,0-1,.31-1.41.6-.72,1-.54,2.1-.41,1.36.16,1.89.43,2.43-.34.35-.51-1.85-1-2.21-1.43-1.2-1.31.43-1.22,1.13-1.5,1-.43.57-.54-.26-.76-.35-.09-.81-.09-.91-.84.15-.71.59-.39.84-.34,1.36.28,1.88.28,3.47.67.67.16,1.35.36,1.43-.08s-.12-.42-.52-.6c-1.2-.54-3.36-.34-3.36-2,.55-1,2.09-.34,3.1-.65.32-.1.51-.64.76-1a2.44,2.44,0,0,0-.8-.35c-1.44,0-2.89,0-4.32-.06-.27,0-.49-.62-.74-1,3.11-2.34,6.64-4,10-6a15.35,15.35,0,0,1,3-1c1.3-1.15,1.3-1.36.16-2a7.63,7.63,0,0,1-1.16-1c1.19-.33,2.36-.76,3.57-1s1.88.47,1.11,1.68-1.53,2.16.53,2.32c.7.05.47.7.39.8a16.25,16.25,0,0,1-1.74,1.78c-1.39,1.25-.37,1,.63,1.49,1.86.86,1.8,1.79-.33,2.8-.93.44-1.61,1-1,1.57,1.77,1.77.73,2.21-.89,2.89-.58.23-1.32,1.64-1.15,1.86,2.11,2.71.5,2.84-1.74,2.8-.44,0-1.28.61-1.27.9.19,3.33-1.9,4.81-4.51,6.08-1.71.83-1.55,2,.17,3,2.4,1.37,5,.92,7.56,1,2,.05,1.91.14,1,2.26-.67,1.57-1.21,3-3.3,2.73-.16,0-.44-.06-.48,0-2.47,4.27-7.67,2.37-11,4.85-.86.64-1.76,1.13-1.53,2.06.34,1.35.67,2.71,1,4.06-.84.5-.7.43-1.46.09-.4-.17-3.21.74-3.54.86a1.1,1.1,0,0,1-.82-.22c-.14-.54-.11-.57,0-.65a1.9,1.9,0,0,1,.94-.48l.42-.12.38-.14.25-.07.59-.15.82-.2c0-.56.31-1.22.1-1.66a13.59,13.59,0,0,0-1.71-2.73c-.25-.33-.79-.43-1.55,1.93-1.91,2.63-1.27,3.78-1.42,4.54-.33,0-.66.23-1,0a3.2,3.2,0,0,0-2.48-1.77c-.63,0-2.16-.95-1.94-1.37.95-.06,4,1.59,4.17,1.5,1.67-1.21,1.38-2.68,1.17-5.12-.07-.87-1.23-1.85-2.11-2.17-6.19-2.27-10.76-6.2-15.36-11.12-1.48-1.56-1.91-2.83-2.91-6.91a28.42,28.42,0,0,1,.2-7.71c.28-3.18.16-2.1.28-3.18.18-1.65,0-1.59-2-3.61-.18-.19-.48-.43-.7-.68-1-1.17-2-2.35-3.06-3.53,1.29-.09,2.49-.19,3.93-.32,2.67-.24,3.76.11,4.46-.17" transform="translate(-656.27 -358.92)"/><path class="cls-1" d="M691,370v-1c.11-.28.15-.69.36-.82A36.78,36.78,0,0,1,702,363a7.63,7.63,0,0,0,1.16,1c1.14.66,1.14.87-.16,2-1.16-1.58-2.66-1.37-4-.46C696.46,367.31,693.59,368.41,691,370Z" transform="translate(-656.27 -358.92)"/><path class="cls-2" d="M675,382c-.23-.4-.44-.81-.7-1.19a2,2,0,0,0-.71-.66c-.1,0-.57.32-.56.48a10.24,10.24,0,0,0,.43,3.26,12.61,12.61,0,0,0,6.91,6.83,18.09,18.09,0,0,0,7.37,1.17c3.82-.17,5.26,2.67,7.2,4.9.69.8-.28,2.11-1.49,2.18-.82,0-1.65,0-2.47,0-.43-.34-.85-.94-1.28-1-2.82-.09-5.65.12-8.45-.07-7.27-.51-12.68-4.49-16-11.27a21,21,0,0,1-1.73-4.46,15.43,15.43,0,0,1-.49-5.56c.69-5.12,1.13-10.35,6-13.63,0,1.32,1,1,1.73,1a20.86,20.86,0,0,1,4,.84c3,.74-.75,1.63.25,2.16h-3a3.69,3.69,0,0,0-2.84,2.66A6.24,6.24,0,0,0,669,372l1,1c.56,2.21,2.3,2.08,4,2l1.2,0c.74-.13,0-.13.8-.09a7.23,7.23,0,0,1,1-.88c1.61.55,2.51,1.24.76,2.77a10.27,10.27,0,0,0-1.72,2.2" transform="translate(-656.27 -358.92)"/><path class="cls-3" d="M675.89,382.88c-1-.8-1.07-1.13-1.09-1.26-.27-1.59,2.28-4.23,3-4.84,1.74-1.54.84-2.23-.77-2.77a5.33,5.33,0,0,0,1-4,9.35,9.35,0,0,0,1-.77c.37-.38.67-.82,1-1.23.33.41.84.79,1,1.26.42,1.63.62,3.32,1.06,4.94.3,1.08,2.61,1.16,4,.06.89-.71,1.63-1.6,3-1.27-.34.67-.69,1.42-1,2.08-.17,0-.41,0-.42,0-.76,2.75-1.56,5.42-4.19,7.07-.12.08-.12.55,0,.66.65.64,1.13,1.43.21,2-.38.23-1.89-.87-1.91-.65-.08,1.59-3,.8-3.65.85" transform="translate(-656.27 -358.92)"/><path class="cls-4" d="M682.76,388.53a9.39,9.39,0,0,1-3.41-.78A3.11,3.11,0,0,1,678,385a6.19,6.19,0,0,1,1.42-.79l1.68-.39.93-.32.82-.61.51-.72s3.39-4.41,4.15-7.15c0,0,.31,0,.47,0a5.34,5.34,0,0,1,4,1c0,1.61,2.18,1.43,3.36,2,.22.11.61.18.52.6s-1,.33-1.22.28c-1.37-.28-2.32-.59-3.68-.87-.25,0-.69-.18-.84.34.1.64,1,.66,1.34.74,4.39,1,3.3,2.71-.1,1.54-.71-.24-2.14-.31-.94,1,.36.39,3.47.66,3.16,1.19-.49.82-1.83.64-3.05.54s-2.09-.45-2.69.27c-.33.4-1.18.68-.31,1.41a15.41,15.41,0,0,0,2.24,1.19c.44.25,1.24.46,1.09,1-.17.72-1.78.66-2.19.72l-3.11.47" transform="translate(-656.27 -358.92)"/><path class="cls-5" d="M680,368a15,15,0,0,1-1,1.24,9.27,9.27,0,0,1-1,.76l-1-1c.33-.42,1-.88.94-1.24-.16-1.21-1.23-.62-1.94-.76h-1c-1-.53,2.79-1.42-.25-2.16a20.86,20.86,0,0,0-4-.84c-.72,0-1.73.33-1.73-1C672.91,360.4,679.53,362.64,680,368Z" transform="translate(-656.27 -358.92)"/><path class="cls-4" d="M691,370c2.6-1.61,5.47-2.71,8-4.45,1.32-.91,2.82-1.12,4,.46a15.35,15.35,0,0,0-3,1c-3.35,1.95-6.88,3.62-10,6-.33,0-.93-.34-1.26-.34C689.18,370.94,689.41,370.41,691,370Z" transform="translate(-656.27 -358.92)"/><path class="cls-4" d="M688.73,372.67c.33,0,.93.34,1.26.34.25.34,1.15.39,1.41.41,1.44.09,2.27.34,3.71.38.27,0,.74.12.74.58a1,1,0,0,1-.76,1c-1,.31-2.24-.32-3.1.65-1.28-1-3-1-4.47-1C687.85,374.35,688.39,373.34,688.73,372.67Z" transform="translate(-656.27 -358.92)"/><path class="cls-2" d="M688.08,399c.81,0,1.62,0,2.42,0,.18,0,.33.3.49.46-.25.17-.49.48-.75.49-1.29.05-2.59.06-3.88,0a5.15,5.15,0,0,1-1.28-.41,9.52,9.52,0,0,1,1.55-.55A7,7,0,0,1,688.08,399Z" transform="translate(-656.27 -358.92)"/><path class="cls-3" d="M675,382l1,1Z" transform="translate(-656.27 -358.92)"/><path class="cls-3" d="M676,383" transform="translate(-656.27 -358.92)"/><path class="cls-6" d="M677,369l1,1a5.36,5.36,0,0,1-1,4,4.42,4.42,0,0,1-1,.88,6.74,6.74,0,0,1-2,.12l1-2c1.52-.32,1.3-1.26.47-1.95-1.27-1.07-2.62-2.15-4.47-2l1-2h4Z" transform="translate(-656.27 -358.92)"/><path class="cls-7" d="M675,373l-1,2c-2,.34-5.27-.39-5-3C670.68,371.62,673.34,373,675,373Z" transform="translate(-656.27 -358.92)"/><path class="cls-8" d="M672,367l-1,2c-1.52.93-.61,2-1,3h-1a10.44,10.44,0,0,1,0-2.37C669.4,368,670.27,367.46,672,367Z" transform="translate(-656.27 -358.92)"/><path class="cls-3" d="M674,375h2" transform="translate(-656.27 -358.92)"/><path class="cls-3" d="M676,374.89c.33-.33.66-.54,1-.88C676.67,374.35,676.34,374.56,676,374.89Z" transform="translate(-656.27 -358.92)"/><path class="cls-9" d="M677,369l-1-2c.71.14,1.78-.45,1.94.76C678,368.14,677.34,368.6,677,369Z" transform="translate(-656.27 -358.92)"/><path class="cls-10" d="M672,373.65a2.3,2.3,0,0,1-1.87-1.33c-.68-1.61-.71-2.6.87-3.3,2.09-.34,3.2,1,4.47,2,.83.69,1,1.63-.47,1.95A5.54,5.54,0,0,1,672,373.65Z" transform="translate(-656.27 -358.92)"/></svg>