<svg id="Layer_1" data-name="Layer 1" xmlns="http://www.w3.org/2000/svg" viewBox="0 0 220.19 89"><defs><style>.cls-10{fill:#e8e3de;}.cls-11{fill:#a3cdbc;}.cls-12{fill:#28160a;}</style></defs><title>Big_Cloud</title><path class="cls-10" d="M781,427.15c0,.28,0,.56,0,.85H585a1.26,1.26,0,0,1,.59-1.67c1.86-1,3.9-.73,5.88-.73q91.24,0,182.49,0C776.38,425.62,779,425,781,427.15Z" transform="translate(-572.77 -339)"/><path class="cls-10" d="M695,339.89a8.81,8.81,0,0,0,0-.89h4a8.42,8.42,0,0,0,0,.87A2.59,2.59,0,0,1,695,339.89Z" transform="translate(-572.77 -339)"/><path class="cls-11" d="M661,367.32a31.56,31.56,0,0,0,3.92-3.53,15.34,15.34,0,0,0,2.78-4.76c.74-2.27,2.51-3,4.33-3.83a5.9,5.9,0,0,0,1.15-1.08l-.08.07A23.06,23.06,0,0,1,682.2,349c18-4.26,31.44,3.64,42.7,16.51,7,8,13,16.86,16.05,27.31a34.47,34.47,0,0,0,3.32,7.78c1,.83,1.41,2.25,2.76,2.73,2.9.49,4.83-2.4,7.64-2.2,4.93-3.07,10.41-1.84,15.67-1.81,3.1,0,5.88,1.88,8.68,3.25,1.13.55,2.22,1.17,3.33,1.75,2.6,1.14,5.19,2.25,6.92,4.69,2.8,3.93,4,8.12,1.77,12.66-2,4.1-5.76,5.23-9.94,5.51-1,.06-2,0-3,0q-91.89,0-183.77,0a58,58,0,0,1-8.44-.64c-6.46-.92-9.87-5.58-8.83-12.08,1.28-8.05,6.86-12.2,13.91-14.89,3.58-1.36,7.48-1.65,11.4-3.33a56.32,56.32,0,0,1,6.89-23.5c3.91-7.23,9.54-12.28,17.52-14.57,10.29-.74,19,2.86,26.82,9.4,1.53,1.28,2.69,3.24,5.33,2.55a7.27,7.27,0,0,1,3,.26C660.93,369.57,660.23,368.67,661,367.32Z" transform="translate(-572.77 -339)"/><path class="cls-12" d="M627,358,621.32,360c-10.38,5.6-14.13,15.23-17.22,25.1-1.15,3.66-2.31,7.73-.43,11.42-4.87,1.15-10,1.77-14.68,3.65-5.39,2.17-10.21,5.6-11.55,11.95a51.44,51.44,0,0,0-.6,5.55c2.25,4.25,2.25,4.25,5.77,6.33,16.32,2,32.57.78,48.79,1s32.32.05,48.48.05h49c16.16,0,32.32,0,48.48,0,4.41,0,8.33-.94,11.27-4.09l1.36-5.51a15,15,0,0,0-8.11-11.16c-.34-.18-.47-.76-.7-1.16,2.77-.64,4.91,1.06,7.36,2.17,4.55,6.08,6.89,12.48.64,19.66l-3.94,2-4.2.23c-1,0-2-.13-3-.13H589c-1.33,0-2.65.08-4,.12l-4.41-.23c-4-2.23-7.37-4.85-7.8-9.83l.09-5.13c.68-5.43,3.84-9.22,8.33-11.91a33.77,33.77,0,0,1,14.29-5.12,23.52,23.52,0,0,0,4.38-1.29c.42-3,.45-6.22.93-9.39.69-4.57,2.56-8.64,4.46-12.53A34.2,34.2,0,0,1,615,359.57,30.5,30.5,0,0,1,631.23,353c8.57-.7,15.77,2.5,22.19,7.87,2.12,1.78,4.28,3.5,6.42,5.25.59,1.2,1.46,2.87,2.15,4.27-1.19,0-3.09.11-4.34.11-3.57-1.54-5.15-5.59-8.27-7.76C642.51,358,635.22,356.06,627,358Z" transform="translate(-572.77 -339)"/><path class="cls-12" d="M680.84,349c-2.69.57-4.54,2.75-7.06,3.65a14,14,0,0,1-1.84.4c.21-2.83,2.55-4.25,4.4-5.56a44.25,44.25,0,0,1,13.86-7,33,33,0,0,1,4.78-.57l4,0,5,.23a27.23,27.23,0,0,0,2.6,1.07c6.69,2,11.95,6.42,16.81,11.05A53.78,53.78,0,0,1,733,365,96,96,0,0,1,743,391.64c.76,3.53,1.86,7,2.8,10.48l-1,1.13L743.15,401c-3.86-7.66-5.54-16.2-9.87-23.72-5-8.71-10.23-17.19-18.21-23.48C704.66,345.56,693.15,344.15,680.84,349Z" transform="translate(-572.77 -339)"/><path class="cls-12" d="M672,352.94" transform="translate(-572.77 -339)"/><path class="cls-12" d="M670.87,354" transform="translate(-572.77 -339)"/><path class="cls-10" d="M680.84,349a23.38,23.38,0,0,1,12-4c10.44-.68,18.91,3.59,26.22,10.57s12.41,15.16,16.56,24.28c2.77,6.12,4.7,12.5,7.22,18.68a9.27,9.27,0,0,1,.3,2.44c-.64-.43-1.62-.73-1.86-1.33-1.53-3.75-2.34-7.83-4.27-11.4L735.83,386c0,.09,0,0-.63-1.25a21.27,21.27,0,0,1-1.05-2.52,13.59,13.59,0,0,1-.77-1.48A72,72,0,0,0,724,366.45a81.77,81.77,0,0,0-13.8-12.63c-2.48-1.78-5-3.72-8.24-4.52l-1.06-.24c-6.07-1.36-9.61-.94-14.42-1A31.34,31.34,0,0,0,680.84,349Z" transform="translate(-572.77 -339)"/><path class="cls-10" d="M627,358a15,15,0,0,1,11.45-1.72,28.9,28.9,0,0,1,11.63,5.35c3,2.44,6.27,4.61,7.94,8.31l-1.45,2.18c-4.65-5.08-9.92-9.31-16.09-11.8A33.52,33.52,0,0,0,627,358Z" transform="translate(-572.77 -339)"/></svg>