<svg id="Layer_1" data-name="Layer 1" xmlns="http://www.w3.org/2000/svg" viewBox="0 0 51.54 51.12"><title>big_bird</title><path d="M9.53,3.08c1.81-2,3.72-2.22,3.22-1.07L14.1,1.2C15.63,0,18,.5,16.8,1.66c-.12.11.78.39,1.34,0C20.48.06,21.27.31,22.83,0c3.29,0,.65,1.9.14,2.28-2,1.49.17,1.67,1.09,1.29,1.91-.8,5.65-.9,1.6,2.7-1.5,1.33,7.48-.84,1.36,3.2l.75,2.08c.45,1.27,1.58,2.14,2.61,1.35s1.6-1.71,2.52-2.41a18.57,18.57,0,0,1,2.18-1.21c0,.33-.36,1.49-.36,1.82a2.47,2.47,0,0,0-2,2.82c0,.06,0,.12,0,.18-1.32-.33-2,.63-2.88,1.33-1.39,1.1-3.78,1-4.08-.12-.44-1.62-.64-3.31-1.06-4.94-.12-.47-.63-.84-1-1.26-.47-5.38-7.09-7.62-11-5-4.87,3.28-5.31,8.51-6,13.63,1.32,1.68.35,4,1.17,5.46s.46,3.16,1.1,4.54c3.34,6.78,8.68,10.44,15.93,11.19,2.8.19.46-.28,3,.69a7.64,7.64,0,0,1,1.65.26c.33.1,1.78,0,.81.08-.53.14-.13-.15.56,0,.63,0,.33-.08.78,0,1.29,0,.59,0,1.88,0,.26,0,.32-.14.78,0a4.42,4.42,0,0,1,1.26,0c-.8,0-3.1,0-2.49,0,2.28,0,3.1.14,3.92.14,1.21-.07,2.18-1.38,1.49-2.18-1.94-2.23-3.38-5.07-7.2-4.9A18,18,0,0,1,24,31.85,12.61,12.61,0,0,1,17.05,25a10.3,10.3,0,0,1-.43-3.26c0-.16.46-.53.56-.48a2,2,0,0,1,.71.66c.26.38.47.79.7,1.19l1,1,1,1,1,1c.24.61.18,1.52,1.62,1.69,1.24.14,2.36,1,2.92-.69,0-.05.36-.07.47,0a8.06,8.06,0,0,0,1.92,1.36,17.56,17.56,0,0,0,3.74.59,4.33,4.33,0,0,0,1.29-.45l-.66-.7c-.59-.59-1.14-1.22-1.77-1.75-.87-.73,0-1,.31-1.41.6-.72,1-.54,2.1-.41,1.36.16,1.89.43,2.43-.34.35-.51-1.85-1-2.21-1.43-1.2-1.31.43-1.22,1.13-1.5,1-.43.57-.54-.26-.76-.35-.09-.81-.09-.91-.84.15-.71.59-.39.84-.34,1.36.28,1.88.28,3.47.67.67.16,1.35.36,1.43-.08s-.12-.42-.52-.6c-1.2-.54-3.36-.34-3.36-2,.55-1,2.09-.34,3.1-.65.32-.1.51-.64.76-1a2.5,2.5,0,0,0-.8-.35c-1.44,0-2.89,0-4.32-.06-.27,0-.49-.62-.74-1,3.11-2.34,6.64-4,10-6a15.1,15.1,0,0,1,3-1c1.3-1.15,1.3-1.36.16-2a7.38,7.38,0,0,1-1.16-1c1.19-.33,2.36-.76,3.57-1s1.88.47,1.11,1.68-1.53,2.16.53,2.32c.7,0,.47.7.39.8a16.25,16.25,0,0,1-1.74,1.78c-1.39,1.25-.37,1,.63,1.49,1.86.86,1.8,1.79-.33,2.8-.93.44-1.61,1-1,1.57,1.77,1.77.73,2.21-.89,2.89-.58.23-1.32,1.64-1.15,1.86,2.11,2.71.5,2.84-1.74,2.8-.44,0-1.28.61-1.27.9.19,3.33-1.9,4.81-4.51,6.08-1.71.83-1.55,2,.17,3,2.4,1.37,5,.92,7.56,1,2,.05,1.91.14,1,2.26-.67,1.57-1.21,3-3.3,2.73-.16,0-.44-.06-.48,0-2.47,4.27-7.67,2.37-11,4.85-.86.64-1.76,1.13-1.53,2.06.34,1.35.67,2.71,1,4.06-.84.5-.7.43-1.46.09-.4-.17-3.21.74-3.54.86a1.1,1.1,0,0,1-.82-.22c-.14-.54-.11-.57,0-.65a1.88,1.88,0,0,1,.94-.48l.42-.12.38-.14.25-.07.59-.15.82-.2c0-.56.31-1.22.1-1.66a13.59,13.59,0,0,0-1.71-2.73c-.25-.33-.79-.43-1.55,1.93C25.1,49.1,25.74,50.25,25.59,51c-.33,0-.66.23-1,0a3.19,3.19,0,0,0-2.48-1.77c-.63,0-2.16-1-1.94-1.37.95-.06,4,1.59,4.17,1.5,1.67-1.21,1.38-2.68,1.17-5.12-.07-.87-1.23-1.85-2.11-2.17C17.21,39.81,12.64,35.88,8,31c-1.48-1.56-1.91-2.83-2.91-6.91a28.45,28.45,0,0,1,.2-7.71c.28-3.18.16-2.1.28-3.18.18-1.65,0-1.59-2-3.61-.18-.19-.48-.43-.7-.68-1-1.17-2-2.35-3.06-3.53C1.14,5.25,2.34,5.15,3.78,5c2.67-.24,3.76.11,4.46-.17" transform="translate(0.15 0.01)" style="fill:#261109"/><path d="M34.73,11.08v-1c.11-.28.15-.69.36-.82A36.73,36.73,0,0,1,45.73,4.08a7.38,7.38,0,0,0,1.16,1c1.14.66,1.14.87-.16,2-1.16-1.58-2.66-1.37-4-.46C40.19,8.39,37.32,9.49,34.73,11.08Z" transform="translate(0.15 0.01)" style="fill:#261109"/><path d="M18.59,23.13c-.23-.4-.41-.77-.67-1.15a2.25,2.25,0,0,0-.74-.7c-.1,0-.5.27-.49.43A10.3,10.3,0,0,0,17.12,25,12.61,12.61,0,0,0,24,31.8,18,18,0,0,0,31.4,33c3.82-.17,5.26,2.67,7.2,4.9.69.8-.35,2.16-1.56,2.23l-2.7,0c-1.66,0-3.88,0-4.21-.16a51.65,51.65,0,0,0-5.28-.61c-7.27-.51-12.62-4.86-15.94-11.64a21.57,21.57,0,0,1-1.73-4.46,15.34,15.34,0,0,1-.49-5.56c.69-5.12,1.13-10.35,6-13.63,0,1.32,1,1,1.73,1a20.92,20.92,0,0,1,4,.84c3.29.53-.74,1.65.26,2.18l-2.95.29a3.41,3.41,0,0,0-2.9,2.35,5.14,5.14,0,0,0-.08,2.14l.91,1.22c.56,2.21,2.3,2.08,4,2h1.2c.74-.13,0-.13.8-.09a7.59,7.59,0,0,1,1-.88c1.61.55,2.51,1.24.76,2.77a10.2,10.2,0,0,0-1.72,2.2" transform="translate(0.15 0.01)" style="fill:#f3bf23"/><path d="M19.48,24c-1.1-.83-1-1.19-1-1.32-.27-1.59,2.36-4.3,3.08-4.91,1.56-1.71,0-1.9-1.56-2.53a6.36,6.36,0,0,0,1.39-4.18,14.38,14.38,0,0,0,1.28-.93c.37-.38.79-.65,1.12-1.06.33.41.84.79,1,1.26.42,1.63.62,3.32,1.06,4.94.3,1.08,2.61,1.16,4,.06.89-.71,1.63-1.6,3-1.27-.34.67-.69,1.42-1,2.08H31.4c-.76,2.75-1.56,5.42-4.19,7.07a.65.65,0,0,0,0,.66c.65.64,1.13,1.43.21,2-.38.23-1.89-.87-1.91-.65-.08,1.59-3.25.9-3.9,1" transform="translate(0.15 0.01)" style="fill:#e3c448"/><path d="M26.49,29.61a9.32,9.32,0,0,1-3.41-.78,3.05,3.05,0,0,1-1.47-2.64,7.21,7.21,0,0,1,1.54-.9l1.68-.39.93-.32.82-.61.51-.72s3.39-4.41,4.15-7.15h.47a5.31,5.31,0,0,1,4,1c0,1.61,2.18,1.43,3.36,2,.22.11.61.18.52.6s-1,.33-1.22.28c-1.37-.28-2.3-.52-3.66-.8-.25,0-.64-.23-.79.29.1.64.93.64,1.27.72,4.39,1,3.3,2.71-.1,1.54-.71-.24-2.14-.31-.94,1,.36.39,3.47.66,3.16,1.19-.49.82-1.83.7-3.05.6s-2.09-.51-2.69.21c-.33.4-1.18.68-.31,1.41a14.55,14.55,0,0,0,2.24,1.19c.44.25,1.24.46,1.09,1-.17.72-1.78.66-2.19.72l-3.11.47" transform="translate(0.15 0.01)" style="fill:#8a5b20"/><path d="M23.77,9.15a12.61,12.61,0,0,1-1,1.2,10.43,10.43,0,0,1-1.13.85l-.92-1.12c.33-.42.35-.46.29-.82-1.32-1-.32-.37-1.32-1L18.36,8.1c-.86-.6,2.73-1.17.07-2a20.75,20.75,0,0,0-4-.8c-.72,0-1.83.14-1.83-1.19C16.42,1.25,23.3,3.79,23.77,9.15Z" transform="translate(0.15 0.01)" style="fill:#e3c448"/><path d="M34.73,11.08c2.6-1.61,5.47-2.71,8-4.45,1.32-.91,2.82-1.12,4,.46a15.1,15.1,0,0,0-3,1c-3.35,1.95-6.88,3.62-10,6-.31.23-1-.27-1.31-.27C32.86,12.09,33.14,11.49,34.73,11.08Z" transform="translate(0.15 0.01)" style="fill:#8a5b20"/><path d="M32.46,13.75c.33,0,.93.34,1.26.34.25.34,1.15.39,1.41.41,1.44.09,2.27.34,3.71.38.27,0,.74.12.74.58a1.1,1.1,0,0,1-.75,1.09c-1,.31-2.25-.41-3.11.56-1.28-1-3-1-4.47-1C31.58,15.43,32.12,14.42,32.46,13.75Z" transform="translate(0.15 0.01)" style="fill:#8a5b20"/><path d="M18.73,23.08l1,1Z" transform="translate(0.15 0.01)" style="fill:#e3c448"/><path d="M19.73,24.08" transform="translate(0.15 0.01)" style="fill:#e3c448"/><path d="M20.94,9.16a3.69,3.69,0,0,1,.71,2,5.4,5.4,0,0,1-1,4,4.65,4.65,0,0,1-1,.88,11.4,11.4,0,0,1-2.6.2l1.24-2.17c.93-1.54.39-3.39-.11-3.41-1.27-1.07-1.8-.63-3.65-.48l1.12-2L19,8.08A3.07,3.07,0,0,1,20.94,9.16Z" transform="translate(0.15 0.01)" style="fill:#c9c7b8"/><path d="M18.73,14.08l-1,2c-2,.34-5.27-.39-5-3C14.41,12.7,17.07,14.08,18.73,14.08Z" transform="translate(0.15 0.01)" style="fill:#c9c7b8"/><path d="M15.73,8.13l-1,1.95c-1.52.93-.61,2-1,3h-1a10.44,10.44,0,0,1,0-2.37C13.13,9.08,14,8.59,15.73,8.13Z" transform="translate(0.15 0.01)" style="fill:#c9c7b8"/><path d="M17.73,16.08h2" transform="translate(0.15 0.01)" style="fill:#e3c448"/><path d="M19.73,16c.33-.33.66-.54,1-.88C20.4,15.43,20.07,15.64,19.73,16Z" transform="translate(0.15 0.01)" style="fill:#e3c448"/><path d="M15.73,14.73a2.3,2.3,0,0,1-1.87-1.33c-.68-1.61-.17-2.82.87-3.3,2.09-.34,2.51-.52,3.78.48A2.14,2.14,0,0,1,18.37,14,4.47,4.47,0,0,1,15.73,14.73Z" transform="translate(0.15 0.01)" style="fill:#2b2b19"/></svg>