<svg xmlns="http://www.w3.org/2000/svg" viewBox="0 0 814.3 148.65" style="fill: #feda30"><g id="Layer_2" data-name="Layer 2"><g id="Layer_1-2" data-name="Layer 1"><path d="M792.12,101.74l9.18,6.76c-3.68.2-7.27.61-10.86.53-9.76-.23-19.52-.89-29.28-1-5.67,0-11.34.82-17,1.14-3.22.18-6.45.09-6.26-3.07-1.2.88-2.72,2.92-4.38,3-5.6.41-11.25.09-16.88.13q-39.47.25-78.93.54c-3,0-5.94-.28-8.91-.43l-.11,1.3q18.14,1.17,36.27,2.34c12.15.8,24.33,1.4,36.46,2.51,11.76,1.07,24-1,35.23,3.89l-.07,1.46-7.46.77,6.07,1.88.05.67H717.89v1.51h17.72c0,.44,0,.87,0,1.31-3.54.49-7.08,1.36-10.63,1.42q-39.11.72-78.21,1.15c-7.65.09-15.31,0-23.1,1.2l29.25,2.09c.07.81.15,1.62.22,2.43l-10.59,3.09c3.41.36,5.85.52,8.25.88,4.6.67,9.19,1.38,13.75,2.26a2.57,2.57,0,0,1,1.59,2,2.71,2.71,0,0,1-1.82,1.8c-5.75,1.1-11.51,2.76-17.3,2.87-11.89.24-23.8-.32-35.71-.67-8.39-.24-16.79-1-25.18-.94-12.92.1-25.83.78-38.75,1.09-3.57.08-7.15-.48-10.72-.41-10.8.19-21.59.64-32.39.77-3.59.05-7.18-.75-10.78-.8-24.86-.36-49.72-.76-74.58-.82-4.5,0-9,1.67-13.51,2.19-1.65.19-3.42-1-5.15-1.06-8.3-.21-16.61-.27-24.91-.33-15.7-.09-31.41-.14-47.12-.24a2.37,2.37,0,0,1-2.2-1.42h22.2V144.2c-18.81,0-37.61,0-56.41,0q-57.21-.16-114.41-.41c-7.46,0-15,.55-22.36-.27-5.76-.64-11.31-3.1-17-4.58-4.19-1.1-8.45-1.93-12.68-2.88l-.25-1.57,6.22-1.56.09-.87-28.37-1.92,0-.54h19.73V128H101.34l0-1.46h9.85l0-.63-15.33-1.81.08-1.47,7.54-.42.1-.44L99.7,121l-.35-1.41c2.56-.87,5.08-2.34,7.68-2.49,6.14-.37,12.32-.12,17.48-.12l-10-4.08.44-1.37H120l.16-1.23-10.67-1.68c-1.74-4.91,2.07-5.44,5-7.36h-42V99.73h51.4c0-.72,0-1.44,0-2.17H60.42V95.1H164.08V93.16H61l-.27-1.1,3.46-3c-4.27,0-7.72.33-11.06-.11-2.64-.35-7.06,2.23-7.63-3.52l-4.17-.88,0-1,3.81-.82L26.64,75.9l0-1.3,40.67-6.8c0,.08-.28-1-.66-2.45l-33.87-1.7c5.33-5.81,12.37-3.14,18.49-5.55L44.25,57c22.92-5.76,46.38-1.5,70.08-4.15-6.74-.66-12.84-1.44-19-1.81s-12.17-.31-18.25-.46c-15-.37-30-.22-44.91-1.31-9.4-.7-18.67-3.27-28.71-5.13l6.74-5.72L9.59,37.3H.23L0,35.56l15.87-2L.74,32.68l0-1.74,35.86-3.67L35.7,25.8C47.2,20.23,59.51,23,71.45,22.38c8.42-.42,16.88.06,25.32.15,5.16,0,10.32.21,15.47.14,2.71,0,5.42-.43,7.78-.64-.65-3-2.12-5.7-1.32-7.13a8.6,8.6,0,0,1,6-3.54c7-.63,14-.73,21-.77,5.38,0,10.77.64,16.13.46,4.35-.14,8.66-1.36,13-1.59,2.66-.14,5.36.91,8.06,1,7,.32,14.82,2.39,20.88.05,5.89-2.27,9.75,1.87,15,.86,8.18-1.58,16.74-1.25,25.15-1.52,1.76-.06,3.58,1.25,5.32,1.12,10.74-.82,21.38,1.05,32.08,1,4.84,0,9.67-1,14.51-1,19.31-.13,38.62-.07,57.93-.08h43.45c0-.7,0-1.4.05-2.09l-48.61-2.4c0-.57-.09-1.13-.14-1.7a38.54,38.54,0,0,1,6.38-1.15c34-.4,68-.65,102-1.06,23.62-.28,47.29.14,70.84-1.33,39.94-2.48,79.8-.24,119.68.48,18.8.34,37.62.65,56.37,1.95C711.91,4.13,719.91,7.13,728,9c0,.53,0,1.06,0,1.59-5.13.48-10.3.78-15.39,1.55-2,.3-3.79,1.75-5.74,2.5-2.44.94-4.91,2.24-7.44,2.43-5.13.38-10.3.11-15.47.6,10,2.75,20.25.57,30.37.83s20.34-.21,30.39.85c9.28,1,19.11-3.21,28.31,3.05l-2.67,1c-.57,2.55-1,4.57-1.42,6.33,2.41.89,4.93,1.93,7.54,2.73a5.52,5.52,0,0,0,3.4.14,25.42,25.42,0,0,1,20,.33,24.67,24.67,0,0,0,3.89.72l-5.21,2.18,5,5.79c-.75.48-1.74,1.65-2.77,1.68-5.51.15-11.07-.36-16.55.06-8.24.63-16.87-.57-25.77,4.68l9.4,1.49.78,4.89c-10,1.23-20.54,2.69-31.07,3.71-3.36.32-6.87-.32-10.25-.89-6-1-8.53,2.63-11.25,7.85,12.11,0,23.61-.13,35.11,0,11,.16,22.36-2.89,33.91,3.26l-5.63,1.36c5.84.2,10.78,5.79,17.48,2.61,1.43-.68,4.32,1.71,6.54,2.69l-.34,1.8L775.6,78.52v.91h34.52l.22,1.71-12.87,1.92-.06,1.24,7.08,1.13,0,1.17H788.71v1.71l25.47,2,.12,1.57c-4,.22-8.09.41-12.14.68a108,108,0,0,0-12.45,1.38l18.61,1.13V97l-50.27,1.5,0,.27h48.5l.15,1.73q-7.29.66-14.57,1.29H768.16l.05,1.31c3.78.18,7.55.44,11.33.48,1.21,0,3.05-1.22,3.52-.76C786.64,106.22,789.21,102.84,792.12,101.74Zm-598.7,1.68-.54-2.28c-10.62.63-21.25,1.78-31.88,1.74-10.91,0-21.82-1.26-32.73-2l-.11,1.64c4.87.34,9.74.83,14.62,1,9.77.35,19.65-.2,29.3,1.06,5.84.75,11.6-2.54,17.33.43C190.24,105.47,192.06,104,193.42,103.42Zm-77.83-36.3v1.16h37.71V67.12ZM752,93.56v.49h24.8v-.49Z"/></g></g></svg>