<svg id="Layer_1" data-name="Layer 1" xmlns="http://www.w3.org/2000/svg" viewBox="0 0 294.65 304.95"><defs><style>.cls-331{fill:#120f0d;}.cls-332{fill:#302a25;}.cls-33{fill:#857574;}.cls-34{fill:#f5cc53;}.cls-35{fill:#ede7de;}.cls-36{fill:#fefefe;}</style></defs><path class="cls-331" d="M623.88,437.78c-.77,3-1.21,6.12-2.43,8.91-.92,2.12-1.89,5.05-5.77,2.88-2.26-1.26-8.07,7.13-6.61,10.19,2.1,4.38-.81,6.28-3.35,8.14-7.55,5.52-18.53,5.17-26.32-.66l4.26-.58c-29.92-4.79-29-30-34.73-50.63-3.3-2.51-9.85-3.27-4.11-10.15l1.23-1.72.72-3.19,2.32-.11,5-4.91-.1.08L555.1,395l-.14.12,1.16-1.11-.15.16,2.07-1.19-.11.08,1.13-1.06,0,.18,7-4.14-.07,0L568,387l-.1.06,2.6-1.07c3.58-1.77-.9-4.09.41-6l-.79-3-.35-2.67-.69-3.32-.12-1.08-.83-2.91-.27-1.87.21-5.19.31,0,.3,0,1.19,4.19-.08,0,.37,3,.52,1c.13.95.27,1.9.41,2.85.68,3.81,1.26,7.65,2.15,11.41.14.63-.53,3.62,2.13,1.81a27.59,27.59,0,0,0,3.55-.85h0l5-.45,3.25-.64c7-.14,14-.48,20.71,2l-1.09,2.44c-25.75-5.44-51.4,4.61-60.55,23.88l9.65-7.6,2.18,1.53c-1.63,3.22-8.09,3.39-6.51,10.62L560,403.89l-.05.07,2.08-1-.07.06,1.06-1.59-2.59-1.64C568,394,576.87,391.22,586,389l1-.08,15,0,1,.07,2.07.69,2.93.19,6,2.3-5,3.31-6,.45c-17.16.31-33.48,3.06-45.54,16.91-2.88,3.31-6.57,6.92-2.72,12.33,14.21-14,32.33-18.67,51.24-21.46.55,2.51-2.87,1.76-3,3.69l-1.88.19c-.27-1-.83-1.74-2-1.37-.21.07-.13,1-.18,1.57-14.79,2.58-28.56,7.36-39.5,18.26-4,4-3.22,7.39,1.55,10.62,15.69-11.47,32.72-19.74,51.94-22.94,2.14-.54-.31.06,2.14-.54l5.94-.27c1.63.84-.44,3.57,2,4l1,1,1,1h0l.72,1.17a1.55,1.55,0,0,0,.23.86l.77,1c.95,2.46,1.55,4.89-.79,7L625,430l-.1,3.95C624.57,435.23,624.22,436.5,623.88,437.78Zm-6,.12.73-.34-.47-.3c-.07.24-.13.47-.2.7l-.8.1.26.48ZM571,398l-2,1c-.61,0-1.51-.51-1.41,1.23l1.41-1.23,1.95-1,2-.22C571.82,396.8,571.26,396.93,571,398Zm5-2,2.83-.31c-1.52-.93-2.26-.67-2.77.38l-2,.19C575.07,397.15,575.55,396.72,575.94,395.91Zm13.82-2.85h-4.88v.63h4.78a6.54,6.54,0,0,0,5.4-1.35C593,391.51,591.36,392.15,589.76,393.06ZM606.94,445l8.93-5.11-.71-1.27-12.73,5.35c-5.19,1-8.89,4.41-12.77,7.66C595.68,450,601.79,448.69,606.94,445Zm-1.45,8.32c-6.21,2.34-12.39,4.75-20.1,5.15,8.34,5.2,17.37,3,21-4.11l.32-1.17Zm-4.6-20.34.09,0c-13.61,2.33-25.29,9.18-37.91,15.61,4.16,3.9,6.16,11.53,13.1,7.15,9.38-5.92,19.05-11.24,28.77-16.51L619.09,435c3.61-1.07,4-2.46,1.84-6.05-2.77-1.88-5.51-2.58-8.12.28l-2.49.63a11.72,11.72,0,0,0-7.43,2.12ZM622,423.43c.16-1.35.29-2.7-1.16-3.52-1.78-4-5.15-.83-7.62-1.68-21.22,1.19-38.5,11.14-54.6,23.93,2,3.35,4.26,2.95,6.63,1.59,16.12-9.19,33.48-14.86,51.65-18.24C618.38,424.22,621.29,426.49,622,423.43Zm-30.24,39.71.13.49h6.18l0-.49Zm-9.39-68.55-.07-.55-1.87.24.07.56Z" transform="translate(-410.52 -166.89)"/><path class="cls-332" d="M527.35,358.68c-11.42-10.35-23.74-19.86-31.84-33.33-15-24.87-6.9-59.08,18.4-78.76,25.77-20,61.73-21.35,87.77-2.45,13.34,9.68,21.45,23.05,23.07,39.85h-2c-1.71-8.66-4.22-17-9.39-24.35-21.5-30.63-67.14-35.27-98.75-9.95-30.1,24.1-32.39,61.77-5.26,88.95,6.34,6.35,13.13,12.25,19.71,18.35Z" transform="translate(-410.52 -166.89)"/><path class="cls-331" d="M417,335.88c-3.19.2-5.7-.89-6.37-3.83s1-5.18,3.8-6c12.94-3.86,26.35-4.69,39.71-5.53,3.16-.2,5.22,2.37,5.31,5.53s-2,5.24-5.11,5.62C441.86,333.16,429.33,334.5,417,335.88Z" transform="translate(-410.52 -166.89)"/><path class="cls-331" d="M664.53,270.56c-3.54-.25-6.57-1.31-7.12-5.06-.59-4,2.75-5.64,5.83-6.1,11.68-1.73,23.41-3.11,35.13-4.55,3.53-.43,6.3.52,6.75,4.67s-2.51,5.71-5.61,6.19C687.88,267.52,676.19,269,664.53,270.56Z" transform="translate(-410.52 -166.89)"/><path class="cls-331" d="M440.73,226c8.89,2.4,15.75,8.58,23.5,13.13a67,67,0,0,1,7.94,5.84,4.82,4.82,0,0,1,1.21,6.7c-1.39,2-3.8,2.8-6.47,1.23-9.74-5.71-19.6-11.22-29.3-17-2.06-1.23-4.07-3-2.84-6.08C435.86,227,438.1,226.39,440.73,226Z" transform="translate(-410.52 -166.89)"/><path class="cls-331" d="M551.59,201.58c.11,3.49-1.37,5.07-3.45,5.93a4,4,0,0,1-5.34-2.37c-4.57-10.94-5.91-22.66-7.63-34.24-.34-2.31,1.89-3.74,4.31-4,3.34-.33,5,1.93,5.59,4.55C547.47,181.78,549.58,192.15,551.59,201.58Z" transform="translate(-410.52 -166.89)"/><path class="cls-331" d="M626.28,214.53a13.05,13.05,0,0,1,1.8-3q9.46-10.81,19.12-21.46c1.92-2.12,4.4-3.22,7-1.09s2.38,5.15.34,7.49c-6.75,7.7-13.7,15.23-20.59,22.82a4.59,4.59,0,0,1-5.84,1.11C626.33,219.53,625.38,218,626.28,214.53Z" transform="translate(-410.52 -166.89)"/><path class="cls-332" d="M606.82,386.54c.36-.82.73-1.63,1.09-2.44l3,1c-6.53-16.54-6-32.92-1.19-49.33,3.81-13.12,10.86-25.16,13-38.85l2,0c-1,11.83-6.83,22.09-10.46,33.08-5.93,17.92-8.72,35.89-.48,54.08,1.59,3.51,4.91,4,7.11,6.21-.09.95,1.23,2.34-.84,2.66l-1,0,.06,0C615.63,389.45,611.19,388.06,606.82,386.54Z" transform="translate(-410.52 -166.89)"/><path class="cls-331" d="M623,416.9c-2.48-.4-.41-3.13-2-4-.05-.38-.09-.76-.13-1.14.8-4.43-1.55-5.58-5.38-5.07-3.42.45-6.84,1-10.26,1.48l-2.28-.79c.16-1.93,3.58-1.18,3-3.69l1.29-1,3.78-.78,0,.09,1-.16,2,.06c1.59.58,3.17,1.87,5.35-.3-2.39-3.91-6.89-4.24-10.38-6.11l5-3.31c1.67.4,3.18,1.87,5.07.76l-.06,0c-.46,1.08.38.83.91.89l2.93,1.21c0,1.28,0,2.56,0,3.85-.3.32-.59.65-.88,1,0,.68,0,1.37.08,2.06.38.85.75,1.7,1.12,2.54l.87-.71C628.31,408.46,624.67,412.61,623,416.9Z" transform="translate(-410.52 -166.89)"/><path class="cls-332" d="M549.09,400.86l-2.32.11c-1.28-9.28-1.87-18.73-6.75-27.12-.27-.34-.36-.86-.63-1.2-2.42-5.17-6.56-8.9-10.58-12.53l-1.14-1c-4-3.74,2-1.79,3-.75,9.89,10.48,17.78,23.81,18.12,38.63-.12.09-.35.23-.34.27a6.11,6.11,0,0,0,.38.65Z" transform="translate(-410.52 -166.89)"/><path class="cls-332" d="M624.59,296.92l-2,0,.13-12.9h2Q624.68,290.46,624.59,296.92Z" transform="translate(-410.52 -166.89)"/><path class="cls-331" d="M622.75,395l-2.93-1.21a2.68,2.68,0,0,0,.1-.85c2.07-.32.75-1.71.84-2.66A3.88,3.88,0,0,1,622.75,395Z" transform="translate(-410.52 -166.89)"/><path class="cls-332" d="M623.88,437.78l1-3.82C627.07,435.91,625,436.72,623.88,437.78Z" transform="translate(-410.52 -166.89)"/><path class="cls-331" d="M624,403.73l-.87.71c-.37-.84-.74-1.69-1.12-2.54Z" transform="translate(-410.52 -166.89)"/><path class="cls-332" d="M529,359.93l-1.63-1.25,1.72-1.69a16.81,16.81,0,0,1,1.62,1.36Z" transform="translate(-410.52 -166.89)"/><path class="cls-332" d="M546.05,404.16l-1.23,1.72Z" transform="translate(-410.52 -166.89)"/><path class="cls-33" d="M621.88,399.84c.29-.33.58-.66.88-1Z" transform="translate(-410.52 -166.89)"/><path class="cls-33" d="M625.71,420l-.72-1.17Z" transform="translate(-410.52 -166.89)"/><path class="cls-332" d="M626.71,421.93l-.77-1Z" transform="translate(-410.52 -166.89)"/><path class="cls-33" d="M625,430l.9-1.1Z" transform="translate(-410.52 -166.89)"/><path class="cls-33" d="M539.21,372.84l.81,1Z" transform="translate(-410.52 -166.89)"/><path class="cls-33" d="M625,418.87l-1-1Z" transform="translate(-410.52 -166.89)"/><path class="cls-34" d="M587.2,382.08l-3.25.64c-1.76-.94-3.47-1.31-5,.45h0a13.91,13.91,0,0,1-3.55.85c-2.66,1.81-2-1.18-2.13-1.81-.89-3.76-1.47-7.6-2.15-11.41,1-1.12.82-2.05-.41-2.85l-.52-1c.78-1.1,1.22-2.16-.37-3l.08,0c-.35-1.41.62-3.2-1.19-4.19l-.3,0-.31,0a6.11,6.11,0,0,0,.17-.74c.77-1.15,1.37-2.26-.48-3l0-.07c-.29-1-.58-2.06-.88-3.08l0-.1c.33-2-1-4.49,1.25-5.85,2-1.24,3.31.86,4.81,1.75l.71,1.2c-.79,1-1.32,2,.43,2.62l.63,1.54c-1.11,1-1,1.89.26,2.68l.73,2.15c-.83,1-1.24,1.91.26,2.66l.75,2.54a3.29,3.29,0,0,0,.26,4.49c1.9,3.45,0,7.85,2.93,11.67,0-11.77-.81-22.82-4.84-33.43-1.8-4.08,4.82-1.9,3.81-5.67l-4.76-1.83c1.62-2.19,3-4.06,5.54-7.5L570,337.29l-2.61-.13,3.43-3.31c10.73-7.86,13.79-19.82,7.15-28-3.64-4.48-9.16-5.88-12.16-3.09,8,.51,13.28,6,12.88,13.71-.34,6.64-4,11.75-8.27,16.45l-1.63,0c0-1.29.09-2.59.14-3.89l.94-2.13,0,0,1-.88c5.19-7,.24-10.91-4.45-14.94l-6.93-8.95-.69.43,4.44,8.44c-.24,2.8-4.34,2.85-4.2,5.93Q557.53,322,556,327l-3.12,2.66c-1.56,1.16-1.31,2.34,0,3.52a4.82,4.82,0,0,0,3.56,3l1.25.81.12,1-2.71-.2-2.16-.81-1.93-1-1.9-1.11-3.79-3.07c-8.24-6.76-9.08-14.72-2.45-22.3a2.94,2.94,0,0,0,.39-2.57c-.59-1.28-2-1.11-3-.61a9.18,9.18,0,0,0-4.6,5.56c-3.19,8.54,3.14,19.84,13.13,23.39l1.68,1.4,2.48,1.94,1,.52,2.31,2.47c-3.18,1.09-6.75,1.09-7.39,3l5.77,7.77a.43.43,0,0,1,0,0c4.23,11.47,6.37,23.46,8.58,35.42-1.07,1.73-4.14,1.59-4.09,4.37l0-.18L557.93,393l.11-.08L556,394.12l.15-.16L555,395.07l.14-.12L554,396l.1-.08c-2.87.54-4.06-.34-4.31-3.55a48.89,48.89,0,0,0-2.45-11.63c-5.15-15.43-15.52-27.24-26.57-38.75-12.58-13.1-20.34-28.1-17-47.33,2.63-15,13.09-24.24,23-34.11,5.35-5.35,10.22-10.69.18-17.24,7.09-3.15,13.45-5.38,20.24-6.12,23.69-2.61,45,2.05,60.38,21.81,14.09,18.12,13.35,38.25,4.61,58.11-7.58,17.22-11,34.75-9.25,53.44.31,3.31,2.58,9.07.52,12.59C598.88,381.93,593.38,381.93,587.2,382.08Zm-19.74-90.72L565,293,561,296.21c-.48-1.13-.91-2.12-1.34-3.11-.28-2.24-.86-3.06-2.17-.47-1.43,2.81-3.8,3.63-6.75,3.23a.48.48,0,0,0-.58,0c-.45-1.36-.91-2.73-2.93-2.88l.88,4,.21,1.93c0,.76.11,1.52.17,2.29l-1.61-.19c-1.79-4.12-4.9-6.33-9.7-6.07l9.78,6c1,3.91,2.2,7.88-3,11a1.72,1.72,0,0,0,1.9,1.86,3.92,3.92,0,0,0,2.91-2.11,54.43,54.43,0,0,0,.86-7.8c.26-1.59.51-3.18.76-4.77l1.39-.28c4.12,2,3.79-4.29,7.09-3.79,0,1.82,1.16,2.88,2.72,4l4.29-5c.68-.66,1.36-1.32,2-2l.7-.53Zm-37.4-.52c-.59-6.87-4.51-10.45-10.4-10.29-7.54.22-10.45,6-10.47,12.66,0,5.58,3.79,9,9.36,8.68C525.43,301.52,528.93,297,530.06,290.84Z" transform="translate(-410.52 -166.89)"/><path class="cls-33" d="M602.9,407.41l2.28.79c.7,5.2,4.88,3,7.73,3.75v-.08c.3.21.07.09,1,.5,1.08.83,1,.75,1,1-19.22,3.2-38.33,11.8-54,23.27-4.77-3.23-5.59-6.6-1.55-10.62,10.94-10.9,24.71-15.68,39.5-18.26l2.14-.2Z" transform="translate(-410.52 -166.89)"/><path class="cls-33" d="M607.22,402.69l-1.29,1c-18.91,2.79-37,7.49-51.24,21.46-3.85-5.41-.16-9,2.72-12.33,12.06-13.85,28.38-16.6,45.54-16.91,2.6,2.11,6.41,2.62,8,6.06l0-.09Z" transform="translate(-410.52 -166.89)"/><path class="cls-33" d="M620.86,419.91c1.45.82,1.32,2.17,1.16,3.52-1.76.55-4.23-.64-5.1,2.08-18.17,3.38-35.53,9.05-51.65,18.24-2.37,1.36-4.64,1.76-6.63-1.59,16.1-12.79,33.38-22.74,54.6-23.93C615.71,419.11,618.63,417.93,620.86,419.91Z" transform="translate(-410.52 -166.89)"/><path class="cls-33" d="M604.94,439.15c-9.72,5.27-19.39,10.59-28.77,16.51-6.94,4.38-8.94-3.25-13.1-7.15,12.62-6.43,24.3-13.28,37.91-15.61l-4,3-17,9c7.21-.43,12.77-4.41,18.85-7.19L605,436Zm-26.17,7.27c-.09-.1-.17-.25-.26-.27s-.21.13-.32.2c.09.09.18.24.28.25S578.68,446.48,578.77,446.42Z" transform="translate(-410.52 -166.89)"/><path class="cls-35" d="M619,392.94c-1.89,1.11-3.4-.36-5.07-.76l-6-2.3c-.9-1.16-1.89-1.08-2.93-.19l-2.07-.69-1-.07-15,0-1,.08c-9.09,2.23-18,5-25.56,10.76l-.29,0L560,400l-2.23,1.58-1.8,1.28-9.65,7.6c9.15-19.27,34.8-29.32,60.55-23.88C611.19,388.06,615.63,389.45,619,392.94Z" transform="translate(-410.52 -166.89)"/><path class="cls-34" d="M569.81,374.24c.12.89.23,1.78.35,2.67s.53,2,.79,3c-1.31,1.93,3.17,4.25-.41,6l-2.6,1.07.1-.06c-.89,0-1.9-.31-2.08,1.06l.07,0-2.21-.23c.76-11.08-2.42-21.45-5.62-31.83.72-.8.93-1.49-.44-1.78v0l-.9-2.16,0,.11c0-1.08,0-2.16,0-3.24l0,.09,3.82.81.29-2.24a4.23,4.23,0,0,1,0-.5c3.09-.24,1.31,3.1,2.91,4l1.8,7.23c-.64.8-1.17,1.59.19,2.22l2,4.68.27,1.87c.28,1,.55,1.94.83,2.91l.12,1.08Z" transform="translate(-410.52 -166.89)"/><path class="cls-331" d="M605,436l-6.16,1.76L597,435.94l4-3-.09,0,2-1a11.72,11.72,0,0,1,7.43-2.12l2.49-.63c2.61-2.86,5.35-2.16,8.12-.28C616.29,432.79,610.12,433.2,605,436Z" transform="translate(-410.52 -166.89)"/><path class="cls-33" d="M606.37,454.32c-3.61,7.12-12.64,9.31-21,4.11,7.71-.4,13.89-2.81,20.1-5.15Z" transform="translate(-410.52 -166.89)"/><path class="cls-35" d="M605,436c5.14-2.75,11.31-3.16,15.95-7,2.19,3.59,1.77,5-1.84,6.05l-14.15,4.18Z" transform="translate(-410.52 -166.89)"/><path class="cls-331" d="M606.94,445c-5.15,3.73-11.26,5-17.28,6.63,3.88-3.25,7.58-6.7,12.77-7.66Z" transform="translate(-410.52 -166.89)"/><path class="cls-35" d="M611,402c-1.59-3.44-5.4-3.95-8-6.06l6-.45c3.49,1.87,8,2.2,10.38,6.11-2.18,2.17-3.76.88-5.35.3l-1-1.51c-.35.48-.69,1-1,1.45Z" transform="translate(-410.52 -166.89)"/><path class="cls-331" d="M606.94,445l-4.51-1,12.73-5.35.71,1.27Z" transform="translate(-410.52 -166.89)"/><path class="cls-33" d="M560,403.89,551.59,415c-1.58-7.23,4.88-7.4,6.5-10.62Z" transform="translate(-410.52 -166.89)"/><path class="cls-331" d="M565.74,358.16l-1.8-7.23,1.32-1.38c.56,1.11,1.11,2.23,1.67,3.34l0,.1c.3,1,.59,2.05.88,3.08l0,.07.48,3a6.11,6.11,0,0,1-.17.74l-.21,5.19-2-4.68C565.87,359.65,565.8,358.9,565.74,358.16Z" transform="translate(-410.52 -166.89)"/><path class="cls-35" d="M620.82,411.79c0,.38.08.76.13,1.14l-5.94.27-1.21-.41-.89-.92.07.09,1.17-2.13,2,.71-.37-2.43C619.08,407.16,619.46,410.15,620.82,411.79Z" transform="translate(-410.52 -166.89)"/><path class="cls-331" d="M560,403.89l-1.88.46-2.17-1.53,1.8-1.28c2.27,1.63,2-.39,2.23-1.58l.16-.25.29,0,2.6,1.64c-.36.53-.64,1.15-1,1.68v-.15l-2.08,1Z" transform="translate(-410.52 -166.89)"/><path class="cls-34" d="M563.82,387.76,566,388l-7,4.14c0-2.78,3-2.64,4.08-4.37l.36.07Z" transform="translate(-410.52 -166.89)"/><path class="cls-35" d="M620.86,419.91c-2.23-2-5.15-.8-7.62-1.68C615.71,419.08,619.08,415.91,620.86,419.91Z" transform="translate(-410.52 -166.89)"/><path class="cls-331" d="M591.78,463.14h6.29l0,.49h-6.18Z" transform="translate(-410.52 -166.89)"/><path class="cls-331" d="M589.76,393.06c1.6-.91,3.23-1.55,5.3-.72a6.54,6.54,0,0,1-5.4,1.35A2,2,0,0,0,589.76,393.06Z" transform="translate(-410.52 -166.89)"/><path class="cls-331" d="M589.76,393.06a2,2,0,0,1-.1.63h-4.78v-.63Z" transform="translate(-410.52 -166.89)"/><path class="cls-35" d="M616.92,425.51c.87-2.72,3.34-1.53,5.1-2.08C621.29,426.49,618.38,424.22,616.92,425.51Z" transform="translate(-410.52 -166.89)"/><path class="cls-331" d="M601,407.6l-2.14.2c0-.54,0-1.5.18-1.57C600.19,405.86,600.75,406.58,601,407.6Z" transform="translate(-410.52 -166.89)"/><path class="cls-34" d="M579,383.17c1.52-1.76,3.23-1.39,5-.45Z" transform="translate(-410.52 -166.89)"/><path class="cls-34" d="M568.72,359.86c1.81,1,.84,2.78,1.19,4.19C569.51,362.66,569.11,361.26,568.72,359.86Z" transform="translate(-410.52 -166.89)"/><path class="cls-34" d="M570.72,368c1.23.8,1.46,1.73.41,2.85Z" transform="translate(-410.52 -166.89)"/><path class="cls-34" d="M569.83,364c1.59.8,1.15,1.86.37,3C570.08,366,570,365,569.83,364Z" transform="translate(-410.52 -166.89)"/><path class="cls-332" d="M571,379.94c-.26-1-.53-2-.79-3C570.42,377.92,570.69,378.93,571,379.94Z" transform="translate(-410.52 -166.89)"/><path class="cls-33" d="M612.81,429.2l-2.49.63Z" transform="translate(-410.52 -166.89)"/><path class="cls-332" d="M569,369.84c-.28-1-.55-1.94-.83-2.91C568.45,367.9,568.72,368.87,569,369.84Z" transform="translate(-410.52 -166.89)"/><path class="cls-36" d="M605,389.69c1-.89,2-1,2.93.19Z" transform="translate(-410.52 -166.89)"/><path class="cls-331" d="M582.39,394.59l-1.87.25-.07-.56,1.87-.24Z" transform="translate(-410.52 -166.89)"/><path class="cls-331" d="M576,396c.51-1.05,1.25-1.31,2.77-.38l-2.83.31Z" transform="translate(-410.52 -166.89)"/><path class="cls-332" d="M569.81,374.24l-.69-3.32Z" transform="translate(-410.52 -166.89)"/><path class="cls-331" d="M569,398.93l-1.41,1.23c-.1-1.74.8-1.22,1.41-1.23Z" transform="translate(-410.52 -166.89)"/><path class="cls-331" d="M569,398.93l2-1-.07-.08L569,398.93Z" transform="translate(-410.52 -166.89)"/><path class="cls-331" d="M571,398c.29-1,.85-1.16,1.91-.29l-2,.22Z" transform="translate(-410.52 -166.89)"/><path class="cls-331" d="M575.94,395.91c-.39.81-.87,1.24-1.89.26l2-.19Z" transform="translate(-410.52 -166.89)"/><path class="cls-33" d="M562,402.92l-2.08,1" transform="translate(-410.52 -166.89)"/><path class="cls-33" d="M602.89,432l-2,1Z" transform="translate(-410.52 -166.89)"/><path class="cls-35" d="M567.94,387l2.6-1.07Z" transform="translate(-410.52 -166.89)"/><path class="cls-35" d="M556,394.12l2.07-1.19Z" transform="translate(-410.52 -166.89)"/><path class="cls-34" d="M566,388c.18-1.37,1.19-1.09,2.08-1.06Z" transform="translate(-410.52 -166.89)"/><path class="cls-36" d="M601.94,388.93l1,.07Z" transform="translate(-410.52 -166.89)"/><path class="cls-36" d="M586,389l1-.08Z" transform="translate(-410.52 -166.89)"/><path class="cls-35" d="M557.93,393l1.13-1.06Z" transform="translate(-410.52 -166.89)"/><path class="cls-35" d="M555,395.07l1.16-1.11Z" transform="translate(-410.52 -166.89)"/><path class="cls-35" d="M554,396,555.1,395Z" transform="translate(-410.52 -166.89)"/><path class="cls-331" d="M618,438l.2-.7.47.3-.73.34Z" transform="translate(-410.52 -166.89)"/><path class="cls-331" d="M617.92,437.9l-.48.64-.26-.48.8-.1Z" transform="translate(-410.52 -166.89)"/><path class="cls-33" d="M563,401.39,561.93,403" transform="translate(-410.52 -166.89)"/><path class="cls-33" d="M605.49,453.28l1.19-.13c-.1.39-.21.78-.31,1.17Z" transform="translate(-410.52 -166.89)"/><path class="cls-331" d="M619.92,393a2.68,2.68,0,0,1-.1.85c-.53-.06-1.37.19-.91-.89Z" transform="translate(-410.52 -166.89)"/><path class="cls-35" d="M620.82,411.79c-1.36-1.64-1.74-4.63-5-3.68-1.78-.61-2.22.07-1.67,1.72L613,412c-2.86-.72-7.1,1.44-7.8-3.76,3.42-.5,6.84-1,10.26-1.48C619.27,406.21,621.62,407.36,620.82,411.79Z" transform="translate(-410.52 -166.89)"/><path class="cls-35" d="M607.22,402.69l3.78-.78Z" transform="translate(-410.52 -166.89)"/><path class="cls-35" d="M612,401.84c.34-.49.68-1,1-1.45l1,1.51Z" transform="translate(-410.52 -166.89)"/><path class="cls-331" d="M548.81,397a1.1,1.1,0,0,1,0,.92,6.11,6.11,0,0,1-.38-.65S548.69,397.07,548.81,397Z" transform="translate(-410.52 -166.89)"/><path class="cls-35" d="M530.06,290.84c-1.13,6.14-4.63,10.68-11.51,11.05-5.57.3-9.38-3.1-9.36-8.68,0-6.66,2.93-12.44,10.47-12.66C525.55,280.39,529.47,284,530.06,290.84Z" transform="translate(-410.52 -166.89)"/><path class="cls-331" d="M565.26,349.55l-1.32,1.38c-1.6-.86.18-4.2-2.91-4l-5.15-1.31,7.12-2.53,5.12-1.07h-5.45L551.9,345l-1.66.79.23.59,1.6-.44,3.78-.23c-.29,1.11-.58,2.23-.86,3.35l.12,1.79-.59,1.49-5.77-7.77c.64-1.91,4.21-1.91,7.39-3l-2.31-2.47,1.25-1.31,2.71.2,1.19.35.18-.64-1.49-.68-1.25-.81,2.57-1.49,2-.27-3-4.49-.95-.87L556,327q1.54-5.05,3.08-10.09l2.89-1c-.05,1-.09,2-.14,3-2.69,4.53-2.2,5.63,4.06,9.14.63.82,1.3,1.36,2.26.42a1.49,1.49,0,0,1,.76-.43,1.3,1.3,0,0,0,.06.95c-.05,1.3-.09,2.6-.14,3.89l.11,0L567.37,334l-2.27,3c1.54,1.84,3.24,1,4.94.3l9.66-5.38c-2.53,3.44-3.92,5.31-5.54,7.5l4.76,1.83c1,3.77-5.61,1.59-3.81,5.67l-2,1c-.72-3.71-3.36-3.25-6-2.74S564.58,347.54,565.26,349.55Zm0-18.11a4.61,4.61,0,0,0-.79-.27c-.07,0-.19.21-.28.32a3.63,3.63,0,0,0,.76.27C565,331.78,565.11,331.57,565.22,331.44Z" transform="translate(-410.52 -166.89)"/><path class="cls-332" d="M562,315.93l-2.89,1c-.14-3.08,4-3.13,4.2-5.93l3.18.08c4.69,4,9.64,8,4.45,14.94-.57,0-1.46-.33-1,.88l0,0c-1.17-.31-.91.58-1,1.18a1.49,1.49,0,0,0-.76.43l-2.26-.42c-6.26-3.51-6.75-4.61-4.06-9.14C562.82,318,563.78,317,562,315.93Z" transform="translate(-410.52 -166.89)"/><path class="cls-332" d="M570.46,332.92c4.32-4.7,7.93-9.81,8.27-16.45.4-7.71-4.85-13.2-12.88-13.71,3-2.79,8.52-1.39,12.16,3.09,6.64,8.18,3.58,20.14-7.15,28Z" transform="translate(-410.52 -166.89)"/><path class="cls-332" d="M548.72,335.19c-10-3.55-16.32-14.85-13.13-23.39a9.18,9.18,0,0,1,4.6-5.56c1.07-.5,2.46-.67,3,.61a2.94,2.94,0,0,1-.39,2.57c-6.63,7.58-5.79,15.54,2.45,22.3l3.79,3.07C549,334.93,548.84,335.06,548.72,335.19Z" transform="translate(-410.52 -166.89)"/><path class="cls-332" d="M563.82,387.76l-.36.07-.36-.07c-2.2-12-4.34-23.95-8.57-35.43l1.48-.41a2.1,2.1,0,0,0,.89.13l0-.11.9,2.16v0c.15.59.29,1.18.44,1.78C561.4,366.31,564.58,376.68,563.82,387.76Z" transform="translate(-410.52 -166.89)"/><path class="cls-332" d="M573.12,347.92l2-1c4,10.61,4.87,21.66,4.84,33.43-3-3.82-1-8.22-2.93-11.67-.09-1.49-.17-3-.26-4.49l-.75-2.54c-.09-.88-.17-1.77-.26-2.66-.24-.72-.49-1.44-.73-2.15-.09-.89-.18-1.79-.26-2.68-.21-.51-.42-1-.62-1.54-.15-.87-.3-1.74-.44-2.62-.24-.4-.47-.8-.71-1.19A1.48,1.48,0,0,1,573.12,347.92Z" transform="translate(-410.52 -166.89)"/><path class="cls-332" d="M546.92,301l1.61.19c.39.89.78,1.78,1.16,2.67a54.43,54.43,0,0,1-.86,7.8,3.92,3.92,0,0,1-2.91,2.11,1.72,1.72,0,0,1-1.9-1.86c5.18-3.13,4-7.1,3-11Z" transform="translate(-410.52 -166.89)"/><path class="cls-331" d="M556,327l1.07,2c-1.47,1.76-.88,3.08.88,4.15l1,1.48-2.57,1.49a4.81,4.81,0,0,1-3.56-3c0-1.17,0-2.34,0-3.51Z" transform="translate(-410.52 -166.89)"/><path class="cls-331" d="M573.12,347.92a1.48,1.48,0,0,0-.13.88c-1.5-.9-2.78-3-4.81-1.76-2.24,1.36-.92,3.87-1.25,5.85-.56-1.11-1.11-2.23-1.67-3.34-.68-2-.83-3.83,1.88-4.37S572.4,344.21,573.12,347.92Z" transform="translate(-410.52 -166.89)"/><path class="cls-332" d="M558.93,295c-3.3-.5-3,5.81-7.09,3.79-.35-1-.71-2-1.07-2.94,3,.4,5.33-.42,6.76-3.23,1.31-2.59,1.89-1.77,2.17.47C559.44,293.73,559.19,294.37,558.93,295Z" transform="translate(-410.52 -166.89)"/><path class="cls-332" d="M547,300.89l-9.78-6c4.8-.26,7.91,1.95,9.7,6.07Z" transform="translate(-410.52 -166.89)"/><path class="cls-332" d="M566.46,311.09l-3.18-.08-4.44-8.44.69-.43Z" transform="translate(-410.52 -166.89)"/><path class="cls-332" d="M558.93,295c.26-.64.51-1.28.77-1.91.43,1,.86,2,1.34,3.11L565,293l1,1-4.29,5C560.09,297.89,558.94,296.83,558.93,295Z" transform="translate(-410.52 -166.89)"/><path class="cls-332" d="M549.69,303.85c-.38-.89-.77-1.78-1.16-2.67-.06-.77-.12-1.53-.17-2.29.76-.73.53-1.36-.21-1.93l-.88-4c2,.15,2.48,1.52,2.93,2.88.08,1.09.16,2.17.25,3.26C550.2,300.67,550,302.26,549.69,303.85Z" transform="translate(-410.52 -166.89)"/><path class="cls-332" d="M565.1,337l2.27-3,1.57-1.08-.11,0,1.63,0,.4.93-3.42,3.31Z" transform="translate(-410.52 -166.89)"/><path class="cls-331" d="M565.1,337l2.34.17,2.6.13C568.34,338,566.64,338.83,565.1,337Z" transform="translate(-410.52 -166.89)"/><path class="cls-34" d="M576.76,364.18c.09,1.5.17,3,.26,4.49A3.29,3.29,0,0,1,576.76,364.18Z" transform="translate(-410.52 -166.89)"/><path class="cls-332" d="M550.45,299.08c-.09-1.09-.17-2.17-.25-3.26a.48.48,0,0,1,.58,0l1.06,2.94Z" transform="translate(-410.52 -166.89)"/><path class="cls-332" d="M565.94,294l-1-1,2.49-1.6a1.89,1.89,0,0,0,.51.61C567.3,292.64,566.62,293.3,565.94,294Z" transform="translate(-410.52 -166.89)"/><path class="cls-332" d="M555.08,337.74l-1.25,1.31c-.32-.17-.64-.34-1-.52,0-.53,0-1.07,0-1.6Z" transform="translate(-410.52 -166.89)"/><path class="cls-34" d="M575.75,359c.09.89.17,1.78.26,2.66C574.51,360.89,574.92,360,575.75,359Z" transform="translate(-410.52 -166.89)"/><path class="cls-34" d="M573.7,350c.14.88.29,1.75.44,2.62C572.38,352,572.91,351,573.7,350Z" transform="translate(-410.52 -166.89)"/><path class="cls-331" d="M552.88,329.69c0,1.17,0,2.34,0,3.51C551.57,332,551.32,330.85,552.88,329.69Z" transform="translate(-410.52 -166.89)"/><path class="cls-34" d="M568.28,359.13l-.48-3C569.65,356.87,569.05,358,568.28,359.13Z" transform="translate(-410.52 -166.89)"/><path class="cls-34" d="M574.76,354.15c.08.89.17,1.79.26,2.68C573.81,356,573.65,355.16,574.76,354.15Z" transform="translate(-410.52 -166.89)"/><path class="cls-331" d="M552.92,336.93c0,.53,0,1.07,0,1.6l-2.48-1.94a7.68,7.68,0,0,0,.59-.69Z" transform="translate(-410.52 -166.89)"/><path class="cls-35" d="M567.84,356.07c-.29-1-.58-2.06-.88-3.08C567.26,354,567.55,355,567.84,356.07Z" transform="translate(-410.52 -166.89)"/><path class="cls-331" d="M557.67,337l1.49.68-.18.64-1.19-.35Z" transform="translate(-410.52 -166.89)"/><path class="cls-332" d="M548.15,297c.74.57,1,1.2.21,1.93Z" transform="translate(-410.52 -166.89)"/><path class="cls-331" d="M550.4,336.59l-1.68-1.4c.12-.13.25-.26.37-.4l1.9,1.11A7.68,7.68,0,0,1,550.4,336.59Z" transform="translate(-410.52 -166.89)"/><path class="cls-332" d="M568.91,328.05c.09-.6-.17-1.49,1-1.18L569,329A1.3,1.3,0,0,1,568.91,328.05Z" transform="translate(-410.52 -166.89)"/><path class="cls-332" d="M569.87,326.91c-.42-1.21.47-.85,1-.88Z" transform="translate(-410.52 -166.89)"/><path class="cls-331" d="M556,351.92l-1.48.41s0-.05,0,0c.19-.5.39-1,.59-1.49Z" transform="translate(-410.52 -166.89)"/><path class="cls-332" d="M567.46,291.36l1.21.08-.7.53A1.89,1.89,0,0,1,567.46,291.36Z" transform="translate(-410.52 -166.89)"/><path class="cls-35" d="M614.24,412.29a8.14,8.14,0,0,0-.85.08c0-.34,0-.67,0-1" transform="translate(-410.52 -166.89)"/><path class="cls-331" d="M597,435.94l1.87,1.77c-6.08,2.78-11.64,6.76-18.85,7.19Z" transform="translate(-410.52 -166.89)"/><path class="cls-33" d="M578.78,446.41c-.1.07-.21.2-.31.19s-.19-.16-.28-.25c.11-.07.22-.21.32-.2S578.68,446.32,578.78,446.41Z" transform="translate(-410.52 -166.89)"/><path class="cls-331" d="M560,400c-.27,1.19,0,3.21-2.23,1.58Z" transform="translate(-410.52 -166.89)"/><path class="cls-331" d="M555.88,345.66,561,347a4.2,4.2,0,0,0,0,.51l-4.11,1.42,0-.08L555,349c.28-1.12.57-2.24.86-3.35Z" transform="translate(-410.52 -166.89)"/><path class="cls-331" d="M556.87,348.9l4.11-1.42c-.1.76-.2,1.52-.29,2.23Z" transform="translate(-410.52 -166.89)"/><path class="cls-331" d="M555,349l1.9-.19c0,1.07,0,2.15,0,3.23a2.12,2.12,0,0,1-.9-.13l-.9-1.12Z" transform="translate(-410.52 -166.89)"/><path class="cls-34" d="M565.74,358.16c.06.74.13,1.49.19,2.22C564.57,359.75,565.1,359,565.74,358.16Z" transform="translate(-410.52 -166.89)"/><path class="cls-35" d="M557.77,354.1l-.9-2.16Z" transform="translate(-410.52 -166.89)"/><path class="cls-34" d="M558.2,355.93c-.15-.6-.29-1.19-.44-1.78C559.13,354.44,558.92,355.13,558.2,355.93Z" transform="translate(-410.52 -166.89)"/><path class="cls-35" d="M614.15,409.83c-.55-1.65-.11-2.33,1.67-1.72l.37,2.43Z" transform="translate(-410.52 -166.89)"/><path class="cls-34" d="M555.85,345.66l-3.78.23a1.6,1.6,0,0,1-.17-.94l10.77-2.89c.12.36.22.71.33,1.07l-7.12,2.53Z" transform="translate(-410.52 -166.89)"/><path class="cls-331" d="M559,334.67l-1-1.48c0-1.09,0-2.19.07-3.28l3,4.49Z" transform="translate(-410.52 -166.89)"/><path class="cls-331" d="M558,329.91c0,1.09,0,2.19-.07,3.28-1.76-1.07-2.35-2.39-.88-4.15Z" transform="translate(-410.52 -166.89)"/><path class="cls-332" d="M562,315.93c1.81,1.08.85,2-.14,3C561.88,317.93,561.92,316.93,562,315.93Z" transform="translate(-410.52 -166.89)"/><path class="cls-331" d="M563,343.13c-.11-.36-.21-.71-.33-1.07h5.45Z" transform="translate(-410.52 -166.89)"/><path class="cls-331" d="M551.9,345a1.6,1.6,0,0,0,.17.94l-1.6.44-.23-.59Z" transform="translate(-410.52 -166.89)"/><path class="cls-331" d="M565.21,331.45c-.1.12-.22.33-.3.31a3.63,3.63,0,0,1-.76-.27c.09-.11.21-.34.28-.32A3.63,3.63,0,0,1,565.21,331.45Z" transform="translate(-410.52 -166.89)"/><path class="cls-332" d="M565.89,328.06l2.26.42C567.19,329.42,566.52,328.88,565.89,328.06Z" transform="translate(-410.52 -166.89)"/><path class="cls-34" d="M568.94,332.87,567.37,334Z" transform="translate(-410.52 -166.89)"/></svg>