<svg id="Layer_1" data-name="Layer 1" xmlns="http://www.w3.org/2000/svg" viewBox="0 0 943.3 124.54"><defs><style>.cls-1{fill:#818100;}.cls-1,.cls-2,.cls-3,.cls-4,.cls-5,.cls-6,.cls-7,.cls-8{stroke:#000;stroke-miterlimit:10;}.cls-2{fill:#feda31;}.cls-3{fill:#a5d5cc;}.cls-4{fill:#f3770b;}.cls-5,.cls-6,.cls-7,.cls-8{fill:none;}.cls-5{stroke-width:3px;}.cls-6{stroke-width:4px;}.cls-8{stroke-width:2px;}</style></defs><path class="cls-1" d="M231.13,330.06h-5l-3.55-1-.28-4.12v-9.08l-1.42-1.14-4.41.28-3.83-.28h-4l-2.84-.43-2.84-.56-2.84-.86-2.69-1-5.26-2.7-2.41-1.56-2.13-1.85-2.13-2-1.85-2.28-3.41-5L179,293.7l-1.14-3-1.56-5.54-.71-2.55-.57-2.7-.57-3.12-.28-3.41-.14-2.56-.29-2.7-.14-2.55V247l.14-4.55.43-3.69.57-2.56,2.41-1.7,4-.14,4.68.14h11.79l2.84-.28,2.55.14,1.85,1.28.57,2.84.14,4.54v5.68l-.14,5.68.14,5.54v5.68l.43,5.54.42,2.69.71,2.56,3,4,3.27,1.56,4.26-.57,3.12-3.55,1.14-4.26.28-5.68.15-3v-5.54l.56-3.41V243l-.14-5.4,1-3.55,2.13-1,2,.14,8.24.14,4.83-.14,2.55.14,4.12.43H252l3,.43.71,3-.15,5-.42,4,.14,4v9.51l-.14,5.83v33.93l-.14,2.7v16.19l.14,5.68-.57,4.4-2.7,2-5,.14Zm8.38-10.23.71-2.55V310l.14-4.11-.28-4.12.28-4.55V286.6l.14-3.4.29-2.42.14-2.7-.14-2.69.14-2.84-.14-3.13.14-4.4-.14-3.55.14-3.27v-5.53l-.43-3.17v-1l-.14-2.37.14-2.63h-2l-.84,1.78v8.38l.29,4.26v2.41l-.28,3v3l.43,2.41-.14,3.13-.43,4.54-1,5-2.13,3.83-2.84,4.55L228,293.28l-2,1.42-5.54,2-5.4.71-3.26-.29-3.41-.85-4.54-2-4.41-3.41-2-2.13-1.57-2.41-1.7-4-.71-3.12-.85-3.83-.57-3v-4l-.14-2.42-.43-3-.14-3.55v-3.55l-.14-4.26-.14-5L190,243.29l-1.42,1.42-.28,2.56.28,2-.28,3.26v2.56l.28,3.69v2.13l.43,3.27v4.12l.56,4.26.43,2.69.28,2.84,1.14,5,1,2.28,1.28,2.27,1.42,2.41,3.41,3.41,1.85,1.56.85.71,1.7,1.28,1.85,1.14,4.12,1.13,4.68,1.14h2.7l2.84-.29,4-1,3.55-1.42,2.13-1.42,1.84-1.56,1.85-2,1.56-1.85,1.7-1.84,1-1.85,1,2.42.14,2.84-.28,5.68.14,4.11-.42,4v7.1l.28,2-.43,2.7.41,1.51Z" transform="translate(-173.12 -228.48)"/><path class="cls-2" d="M305.68,327.93l.85-3.27,2.56-4.83,1.42-2.27,1.42-2.41,2.84-4.55,1.42-2.41,1.42-2.27,1.56-2.28.43-4.11-2.42-4.12-3-4.69-3.27-5-1.42-2.7L308,280.5l-1.42-2.7-2.84-5L298,263.74l-1.42-2.41-1.28-2.27-2.69-4.83L288.36,247l-3-4.69L284.1,240l-1.42-3.69.42-1.71,2.27-.71,3.27.14,21.87.15,3.12,2.13,1.56,2.13,1.42,2.13,2.7,4.54,1.42,2.27,1.42,2.42,2.7,4.54,1.42,2.41,5.68,9.09,1.42,2.13,1.42,2.27,2,3.13,2.27-1.56,1.56-2.28,1.42-2.27,2.84-4.68,3-4.69,2.84-4.54,1.42-2.42,1.57-2.27,1.56-2.13,3-4.54,2.27-3.7,2-2.84,2.7-1.13,3.12-.14,2.56.28,1.56.28.71,1.14v.85l-1.7,3L369.86,242l-3.12,4.82-1.56,2.56-1.42,2.41-2.7,4.41-2.84,4.54-3.12,5.11-3,4.83-1.27,2.13L349.42,275l-4.26,6.67-1.57,2.28-1.42,2.27-1.56,2.27-2.7,4.54-1.27,2.28L333.8,300l-3,5.11-3,5-1.42,2.42-1.56,2.41-4.12,7-1.84,3-1.71,3.13-5,1h-3ZM329.5,286.5l-.25-.75-2-3-1.13-2.27L323.71,277l-1.56-2.42-1.42-2.41L319,269l-2.13-2.84-1.42-2.42-3.27-5.11-3.26-5.4-3.55-5.53-1.85-3.41-1.05-.79-1.79.36.85,3,2.42,4,1.56,2.27,1.42,2.42,1.56,2.27,2.84,4.68,1.56,2.42,1.42,2.41,1.56,2.27,1.85,2.42,1.56,3.26,2.56,4.12,2.27,3.41,1.28,2.13,1.42,2.13.66.47Z" transform="translate(-173.12 -228.48)"/><path class="cls-3" d="M376.11,351.36l-1.7-3.7L373,343.4l-4.69-12.92-1.56-4.26-.57-2.13.57-1.13,3.12-.71,5.68.42,3.13-.85,1.27-3.41.86-2.55,1-2.7,2.7-8.1,2.7-8.23,1.84-5.54.85-2.7.86-2.55.85-2.7,1-2.7,2-5,.85-2.56,2-5,.85-2.55,3-7.67,1-2.7.85-2.7,2-5.39,1.13-2.7,1-2.84,2-5,1.13-2.27,1.14-2.13,2-3.13,3.26,1.28,2.13,5,1.56,3.55,1.42,3.84,1,2.55,1,2.42,2,5.11.85,2.55,2.13,5.54,2.13,5.82,1.14,2.84,2.13,6.11,1.28,3,2.27,6,3.26,8.94,1,3,2.13,5.68,4,10.8,2.28,6,4.54,3.27,6.11.42,2.55,3-1.7,5.26-1,2.7-.85,2.84L458.19,342l-1.42,4.69-1,2.84-3,.71-3.27-.28-.85-.86.57-3.12,1.85-5.82,1.84-6-.71-3.12-9.8-.14h-2.84l-5.39-.29-4.69.29-7-.43h-2.69l-2.56-.14-5,.14-5.11.43h-2.56l-3-.43-3.27.43h-17l-3,.14-.71.85,1,3.55,1,2.84,1,3,1.71,4.83,1.13,3.41-.42,2-2.84,1Zm41.61-28.55,3.55-.14v-2.41l-2-5-1.14-2.7-1-2.7L414,302.08l-1-2.55-2-4.83-.85-2.56-2.13-5.39-1.28-3-1.56-5-2.41,1.28-1,2.7-1,2.84-2,5.4-1.14,2.69-1,2.7-3,8.52-1.56,4.4-1.28,4.12L390,316l-.86,2.7-.85,3.4,1.42.86ZM437,316.42l-2-4.82-1.85-5-.85-2.28-2-4.82-1.13-2.42-1.56-4.68-1.85-4.55-1-2.55-1.14-2.42-2.13-5-1.14-2.7-2-4.82-1.14-2.56-.85-2.84-2.13-4.69-1.56-2.41-1.28-.14-.57,1.13.85,2.84,2.27,5,2.42,6.39,1.84,4,1.28,3.69,2.27,5.11,2.28,5.54,1.13,2.84,1.28,2.84,2,5.26,1.28,3.4.56,1.42,1.42,3.84,2.28,5.39.71,2.28,2.74-.2Z" transform="translate(-173.12 -228.48)"/><path class="cls-4" d="M521.94,331.9l-2.84-.57-5.25-1.42-2.7-.85-2.41-1-2.56-1.14-4-2.13-1.85-1.28-2.84-1.84-2.13-1.85-2.13-2-3.83-4-1.71-2-1.56-2.13-1.42-2.27-2.56-4.83-2.27-5.4-1.56-5.68-.71-5.11-.57-4.12v-4.4l.43-4.83.42-2.41,1.42-5,.86-2.7,1-2.55,2.41-4.69,1.42-2.27,1.57-2.27,1.7-2,1.7-2.13,4.26-4,2.7-2,5.26-3.4,5.11-2.56,2.41-1,2.56-.86,5.11-1.42,5-1,2.56-.28h9.37l2.84.28,2.7.57,5.39,1.42,2.42.85,2.41,1,5,2.42,2.41,1.42,3.27,2.27,2.56,2.56,4.54,4.11,3.69,5.12,1.42,2.13,1.28,2.27,1.28,2.41,2.41,5.11,1,2.84,1.56,6.11.42,6.25v3l-.56,5.82-.43,2.7L578.32,297l-1,2.84-1.27,2.7-1.42,2.7-1.57,2.55-1.7,2.56L569,313.73l-7.25,7.38-2,1.7-4.26,3.13-5,2.7-2.7,1.13-2.84.85-2.84.71-5.82.57-5.83.29h-5.82ZM530.32,318l3.69-.15,5.4-1.27,5.11-1.57,2.13-1,4.69-2.7,2.27-1.7,3.27-3.69,2.55-3.55,1.71-3.13,2.13-3.41,1-2.55.71-2.56.57-3.41,1-3.4.29-2.84-.57-4.83-.71-4.26-.71-2.42-.57-1.84-1-2.13-1.42-3-1.42-2.56-2.56-2.84-2.27-2.41-4.4-4.12-2.28-1.56-2.84-2-5.39-1.85-2.42-.85-4.54-.85-3,.14-2.42-.57-1.84-.14-1.28.43-2.41.42-2.84.71-5.83,2.13L510.3,249l-3.41,2.56-3.83,3.12-2.13,2.42-2.42,3.83-1.27,1.85-1.57,3.12-1,2.56-.43,3.26-.14,1-1.28,3-.28,4.26-.57,4,.71,5,1,4.26,1.84,4.4,2.84,5,3.55,4.4,3,2.56L506,310.6l2.7,1.85,7.67,3.55,6.24,1.42,5,.71Zm-1.84-2.7-4.26-.43-5.4-1.28-5.68-2.27-2.27-1.13-3-1.85-1.57-1.42-2.27-2-3-3.41-1.85-2.41-2-4.54-.71-3.13-1-3.69-.28-2.7-.14-3.69.56-3.27.86-5.82,2.27-6,1.42-2.84,1.7-2.7,3.69-4.4,2.42-2.27,2.84-2.13,6.67-3.55,3.27-.86,3.69-1.27,3.69-.15H532l2.55.29,3.27.85,2.84.57,2.84,1.7,3.55,1.56,2,1.42,2.41,2.42,1.56,1.13,2.7,3.41,2.7,2.84,1,2.13,1.56,2.13,1.14,3.41.71,2.7.71,3.41.28,3-.28,3-.14,3.12-.71,2.7-.57,3-1.42,3.55-1.42,2.7-1.85,3.27-1.56,2.13-3.55,4.12-2.13,2-4.54,2.7-3.84,1.85-4.68,1.42-3.69.42-2,.43ZM531,300.52l2.42-.43,5.11-2.13,2.55-1.56,2.28-2,3.55-5.11,1.27-3,.86-6.25-.29-3-.71-3.12-1.13-2.84-2.7-4.55-3.84-3L538,262.32l-2.41-.85-3.27-.43-3.55-.42-3,.14L522.23,262l-3.69,1.56L516,265.45,512.15,270l-1.42,2.27-1,2.56-.57,2.7.15,6.1.71,3.13,2.27,5.25,1.28,2,4.11,3.41,2.56,1.42,2.7,1.13,2.84.57Z" transform="translate(-173.12 -228.48)"/><path class="cls-3" d="M609.56,287.17l-1.28-3.69.42-4.12,2.42-.71,3,.14,4.55-.14h30.24l6-.14,2,.85.71,3.27-.85,3.69-4.54,1-31.24.15-5.4.14-2.56.14Z" transform="translate(-173.12 -228.48)"/><path class="cls-1" d="M744.88,330.06h-5l-3.55-1-.28-4.12v-9.08l-1.42-1.14-4.41.28-3.83-.28h-4l-2.85-.43-2.84-.56-2.84-.86-2.69-1-5.26-2.7-2.41-1.56-2.13-1.85-2.13-2-1.85-2.28-3.41-5-1.27-2.84-1.14-3-1.56-5.54-.71-2.55-.57-2.7-.57-3.12-.28-3.41-.14-2.56-.29-2.7-.14-2.55V247l.14-4.55.43-3.69.57-2.56,2.41-1.7,4-.14,4.68.14h11.79l2.84-.28,2.55.14,1.85,1.28.57,2.84.14,4.54v5.68l-.14,5.68.14,5.54v5.68l.43,5.54.42,2.69.71,2.56,3,4,3.26,1.56,4.26-.57,3.12-3.55,1.14-4.26.28-5.68.15-3v-5.54l.56-3.41V243l-.14-5.4,1-3.55,2.13-1,2,.14,8.23.14,4.83-.14,2.56.14,4.11.43h4.4l3,.43.71,3-.15,5-.42,4,.14,4v9.51l-.14,5.83v33.93l-.14,2.7v16.19l.14,5.68-.57,4.4-2.7,2-5,.14Zm8.38-10.23.71-2.55V310l.14-4.11-.28-4.12.28-4.55V286.6l.14-3.4.29-2.42.14-2.7-.14-2.69.14-2.84-.14-3.13.14-4.4-.14-3.55.14-3.27v-5.53l-.18-3.17v-6l-1.38-.63h-1l-.71,2.41v8.38l.29,4.26v2.41l.28,3.55-.57,2.42.43,2.41-.14,3.13-.43,4.54-1,5-2.13,3.83-2.84,4.55-3.55,3.55-2,1.42-5.54,2-5.4.71-3.26-.29-3.41-.85-4.54-2-4.41-3.41-2-2.13-1.56-2.41-1.71-4-.71-3.12-.85-3.83-.57-3v-4l-.14-2.42-.43-3-.14-3.55v-3.55l-.14-4.26-.14-5-.34-3.2h-2l-.5,3.77.28,2-.28,3.26v2.56l.28,3.69v2.13l.43,3.27v4.12l.57,4.26.42,2.69.29,2.84,1.13,5,1,2.28,1.27,2.27,1.42,2.41,3.41,3.41,1.85,1.56.85.71,1.7,1.28,1.85,1.14,4.12,1.13,4.68,1.14H730l2.84-.29,4-1,3.55-1.42,2.13-1.42,1.84-1.56,1.85-2,1.56-1.85,1.7-1.84,1-1.85,1,2.42.14,2.84-.28,5.68.14,4.11-.42,4v7.1l.28,2-.43,2.7,1.28,3Z" transform="translate(-173.12 -228.48)"/><path class="cls-2" d="M856.35,331.33H851.1l-3.27-1.13-1.42-3.27-1-2.55-2.28-5.54-1.56-4-3.83-1.13h-3.27l-4.4.42h-6.53l-6.68.14h-2.55l-3,.57-.86,2.84-1,2.27-1.7,4.69-1,2.41-1.7,2.84-2.84.29-2.27.42-2.42-.28-1-.85.42-2.7,1.42-4.69.86-2.41.85-2.56,1.84-5,1.71-4.54,1.7-5.25,1-3,1.13-3,1.85-5.82,1-2.84.71-2.84,1-2.84,1.42-4.69,1.84-4.68,1-2.84.85-2.84,1-3,.85-2.84,2-5.54,3.13-8.24L826,242l1.85-4.12,1.42-3.41,1.84-2.27,2.84.71,2,3.69,2.13,4.26,2.42,6,1.27,2.84,1.28,3,2.7,5.39,1.28,2.7,2.7,5.11,1.13,2.7,2.13,4.83,1.71,4.4,2.13,4.54,1.27,2.56,1.57,4.26,2,4.26,1.28,2.7,2.13,5.11,1,2.27,2.13,4.55,2.27,4.4.71,3.12,2,3.41,1.13,3,2.13,4.55v2.69l-1,1.42-2.56.29-3.69.14-2.13.57-4.12-.57-3.55.57Zm-39.62-25.56,4.26-.14,11.08-.14,2.84-.28,2.7-1-1.28-3-1.14-2.56-2-4.82-1.84-4.69-1.14-2.41-1.7-4.12-2.13-4.55L825,275l-1.42,2.13-.85,2.56-1,2.69-1.7,5.12-.71,2.69-3.41,10.23-.71,2.7-.43,2.69ZM861.32,318l-1.14-2.84L858.62,313l-1.28-3.84-1.27-2.41-2.42-5-1.13-2.7L850.24,294l-1.42-2.7-1.27-2.84-1.14-2.84L844,280.78l-1-2.27-2.55-5L839,270.7l-2.13-5.11-2-4.12-2-4-1.7-1.27-.71,1.27.85,2.84,1.13,2.28,1.42,3.83,1.14,2,1.28,3.12,1.13,2.56,1.14,2.41,5.68,11.36,1,2.42,1.14,2.55,2.27,5,1.14,2.42,1.13,2.55,2.56,4.83,2.56,5.4,1.13,2.84,1.56,3.69.86,1,1.7.14Z" transform="translate(-173.12 -228.48)"/><path class="cls-3" d="M911.16,351.36l-1.7-3.7L908,343.4l-4.69-12.92-1.56-4.26-.57-2.13.57-1.13,3.12-.71,5.68.42,3.13-.85,1.27-3.41.86-2.55,1-2.7,2.7-8.1,2.7-8.23,1.84-5.54.85-2.7.86-2.55.85-2.7,1-2.7,2-5,.85-2.56,2-5,.85-2.55,3-7.67,1-2.7.85-2.7,2-5.39,1.13-2.7,1-2.84,2-5,1.13-2.27,1.14-2.13,2-3.13,3.26,1.28,2.13,5,1.56,3.55,1.42,3.84,1,2.55,1,2.42,2,5.11.85,2.55,2.13,5.54,2.13,5.82,1.14,2.84,2.13,6.11,1.28,3,2.27,6,3.26,8.94,1,3,2.13,5.68,4,10.8,2.28,6,4.54,3.27,6.11.42,2.55,3-1.7,5.26-1,2.7-.85,2.84L993.24,342l-1.42,4.69-1,2.84-3,.71-3.27-.28-.85-.86.57-3.12,1.85-5.82,1.84-6-.71-3.12-9.8-.14h-2.84l-5.39-.29-4.69.29-7-.43H954.9l-2.56-.14-5,.14-5.11.43H939.7l-3-.43-3.27.43h-17l-3,.14-.71.85,1,3.55,1,2.84,1,3,1.71,4.83,1.13,3.41-.42,2-2.84,1Zm41.61-28.55,3.55-.14v-2.41l-2-5-1.14-2.7-1-2.7-3.13-7.81-1-2.55-2-4.83-.85-2.56-2.13-5.39-1.28-3-1.56-5-2.41,1.28-1,2.7-1,2.84-2,5.4-1.14,2.69-1,2.7-3,8.52-1.56,4.4-1.28,4.12-.85,2.56-.86,2.7-.85,3.4,1.42.86Zm19.31-6.39-2-4.82-1.85-5-.85-2.28-2-4.82-1.13-2.42-1.56-4.68-1.85-4.55-1-2.55-1.14-2.42-2.13-5-1.14-2.7-2-4.82-1.14-2.56-.85-2.84-2.13-4.69-1.56-2.41-1.28-.14-.57,1.13.85,2.84,2.27,5,2.42,6.39,1.84,4,1.28,3.69,2.27,5.11,2.28,5.54,1.13,2.84,1.28,2.84,2,5.26,1.28,3.4.56,1.42,1.42,3.84,2.28,5.39.71,2.28,2.69.8Z" transform="translate(-173.12 -228.48)"/><path class="cls-4" d="M1057,331.9l-2.84-.57-5.25-1.42-2.7-.85-2.41-1-2.56-1.14-4-2.13-1.85-1.28-2.84-1.84-2.13-1.85-2.13-2-3.83-4-1.71-2-1.56-2.13-1.42-2.27-2.56-4.83-2.27-5.4-1.56-5.68-.71-5.11-.57-4.12v-4.4l.43-4.83.42-2.41,1.42-5,.86-2.7,1-2.55,2.41-4.69,1.42-2.27,1.57-2.27,1.7-2,1.7-2.13,4.26-4,2.7-2,5.26-3.4,5.11-2.56,2.41-1,2.56-.86,5.11-1.42,5-1,2.56-.28h9.37l2.84.28,2.7.57,5.39,1.42,2.42.85,2.41,1,5,2.42,2.41,1.42,3.27,2.27,2.56,2.56,4.54,4.11,3.69,5.12,1.42,2.13,1.28,2.27,1.28,2.41,2.41,5.11,1,2.84,1.56,6.11.42,6.25v3l-.56,5.82-.43,2.7-1.56,5.68-1,2.84-1.27,2.7-1.42,2.7-1.57,2.55-1.7,2.56-2.41,3.41-7.25,7.38-2,1.7-4.26,3.13-5,2.7-2.7,1.13-2.84.85-2.84.71-5.82.57-5.83.29h-5.82Zm8.38-13.91,3.69-.15,5.4-1.27,5.11-1.57,2.13-1,4.69-2.7,2.27-1.7,3.27-3.69,2.55-3.55,1.71-3.13,2.13-3.41,1-2.55.71-2.56.57-3.41,1-3.4.29-2.84-.57-4.83-.71-4.26-.71-2.42-.57-1.84-1-2.13-1.42-3-1.42-2.56-2.56-2.84-2.27-2.41-4.4-4.12-2.28-1.56-2.84-2-5.39-1.85-2.42-.85-4.54-.85-3,.14-2.42-.57-1.84-.14-1.28.43-2.41.42-2.84.71-5.83,2.13-3.83,2.27-3.41,2.56-3.83,3.12-2.13,2.42-2.42,3.83-1.27,1.85-1.57,3.12-1,2.56-.43,3.26-.14,1-1.28,3-.28,4.26-.57,4,.71,5,1,4.26,1.84,4.4,2.84,5,3.55,4.4,3,2.56,1.14,1.13,2.7,1.85,7.67,3.55,6.24,1.42,5,.71Zm-1.84-2.7-4.26-.43-5.4-1.28-5.68-2.27-2.27-1.13-3-1.85-1.57-1.42-2.27-2-3-3.41-1.85-2.41-2-4.54-.71-3.13-1-3.69-.28-2.7-.14-3.69.56-3.27.86-5.82,2.27-6,1.42-2.84,1.7-2.7,3.69-4.4,2.42-2.27,2.84-2.13,6.67-3.55,3.27-.86,3.69-1.27,3.69-.15h3.84l2.55.29,3.27.85,2.84.57,2.84,1.7,3.55,1.56,2,1.42,2.41,2.42,1.56,1.13,2.7,3.41,2.7,2.84,1,2.13,1.56,2.13,1.14,3.41.71,2.7.71,3.41.28,3-.28,3-.14,3.12-.71,2.7-.57,3-1.42,3.55-1.42,2.7-1.85,3.27-1.56,2.13-3.55,4.12-2.13,2-4.54,2.7-3.84,1.85-4.68,1.42-3.69.42-2,.43Zm2.55-14.77,2.42-.43,5.11-2.13,2.55-1.56,2.28-2,3.55-5.11,1.27-3,.86-6.25-.29-3-.71-3.12-1.13-2.84-2.7-4.55-3.84-3-2.41-1.28-2.41-.85-3.27-.43-3.55-.42-3,.14-3.55,1.28-3.69,1.56-2.56,1.85L1047.2,270l-1.42,2.27-1,2.56-.57,2.7.15,6.1.71,3.13,2.27,5.25,1.28,2,4.11,3.41,2.56,1.42L1058,300l2.84.57Z" transform="translate(-173.12 -228.48)"/><line class="cls-5" x1="128.38" y1="15.02" x2="155.38" y2="58.02"/><ellipse class="cls-6" cx="891.38" cy="52.02" rx="36" ry="36.5"/><ellipse class="cls-6" cx="356.38" cy="52.52" rx="35.5" ry="36"/><line class="cls-5" x1="238.38" y1="30.02" x2="263.38" y2="90.02"/><line class="cls-5" x1="66.38" y1="15.02" x2="65.38" y2="91.02"/><path class="cls-5" d="M189.5,244.5c-5.09,61.46,34.41,69.17,50,35" transform="translate(-173.12 -228.48)"/><line class="cls-7" x1="64.38" y1="50.02" x2="64.38" y2="59.02"/><path class="cls-7" d="M205.5,295.5c3.87,3.76,16,2,15,2" transform="translate(-173.12 -228.48)"/><path class="cls-7" d="M196.5,290.5s-5-7.2-5-10" transform="translate(-173.12 -228.48)"/><line class="cls-8" x1="16.38" y1="16.02" x2="18.38" y2="41.02"/><line class="cls-5" x1="580.38" y1="15.52" x2="579.38" y2="90.52"/><path class="cls-5" d="M703.5,244c-5.09,61.46,34.41,69.17,50,35" transform="translate(-173.12 -228.48)"/><line class="cls-8" x1="578.88" y1="48.52" x2="578.38" y2="60.52"/><path class="cls-7" d="M719.5,295c3.87,3.76,16,2,15,2" transform="translate(-173.12 -228.48)"/><path class="cls-8" d="M713,293c-1.46-.39-8-12-8.5-15.5" transform="translate(-173.12 -228.48)"/><line class="cls-8" x1="530.88" y1="18.52" x2="532.38" y2="40.52"/><line class="cls-7" x1="578.38" y1="22.02" x2="579.38" y2="15.02"/><line class="cls-8" x1="580.38" y1="16.02" x2="579.38" y2="15.02"/><line class="cls-8" x1="657.88" y1="28.52" x2="687.88" y2="91.52"/><line class="cls-8" x1="658.88" y1="29.52" x2="686.88" y2="91.52"/><line class="cls-8" x1="667.88" y1="48.52" x2="672.88" y2="58.52"/><line class="cls-8" x1="773.88" y1="29.52" x2="798.88" y2="90.52"/><line class="cls-8" x1="797.88" y1="90.52" x2="791.88" y2="73.52"/><line class="cls-8" x1="773.88" y1="31.52" x2="783.88" y2="54.52"/><line class="cls-8" x1="785.88" y1="56.52" x2="786.88" y2="58.52"/></svg>