<svg id="Layer_1" data-name="Layer 1" xmlns="http://www.w3.org/2000/svg" viewBox="0 0 108.04 78.95"><defs><style>.cls-13{fill:#acd6c4;}.cls-14{fill:#30271a;}.cls-15{fill:#fdfdfd;}.cls-16{fill:#687a6a;}</style></defs><title>Small_Cloud</title><path class="cls-13" d="M708.18,392A11,11,0,0,1,711,397.8l2,5.2a2.74,2.74,0,0,1,0,.7c1,2.39,0-.15,1.08,2.24.74,1.69,0,.15.24,2,.63,1,.92,2.79,2.63,1.07,4.31.8-4.3-.81,0,0a48.83,48.83,0,0,0,8.07,1c1.29.53,1.06.81,1.78.8s1.44,1.25,2,1.5c4.79,2,4.17,3.4,4.51,6.51,0,.79.18,2.27-.94,2.34a59.23,59.23,0,0,1-8.36-.07,172.92,172.92,0,0,0-20.21.06c-4.75,1.07-6.78.76-10.23.82-18.26.37-36.48-.78-54.73-1-.33,0-.67,0-1,0-3-.27-5.78-2.89-5.82-5.47-.06-2.9,2.88-5.62,6.17-5.67,1.5,0,3,.17,4.49.05,1.74-.15,2.59-1.57,1.63-3-2.31-3.4-1.08-6.39.53-9.53a15.42,15.42,0,0,1,6.87-6.73,5.87,5.87,0,0,1,6,.24c1.42.78,2.39-.16,2.13-2a22.76,22.76,0,0,1,0-8.55c.7-3.13,2-5.44,4.88-6.74,2-.91,4.08-1.33,5.94.5.77.77,1.32,2.35,2.66,1.74s.18-2.27.71-3.13a6.38,6.38,0,0,0,1.11-4.52c.33,0,.58.13.76-.12a22,22,0,0,0,1.56-2.19,3.21,3.21,0,0,0,.46-1.25,8,8,0,0,0-3.15-6.33c-.54-.44-1-.82-1.7-.68-2.74.5-2.84-.22-3.41-2.41-.71-2.7,3.31-7.55,4.92-9.3,4.1-2.6,7,4,11.39,4.15,1.32,1.72,3.52,2.24,5,3.71.06.64-.06,1.72.23,1.84,3,1.27,3.89,3.94,4.76,6.72a2.15,2.15,0,0,0,2.21,1.65c1.55,1,.42,2.68.92,3.95l-.07,3.16c.18,3.56-1.71,6.44-3.17,9.44a12.4,12.4,0,0,1-1.74,2.19,24.71,24.71,0,0,1,2.76.72l4,1.55c2,.95,0,0,2.08,1l0,0c1.39.9.14-.11,1.39.9a3.06,3.06,0,0,1,1.62,1.95c1.08,2.15,0,0,1.08,2.15" transform="translate(-628.85 -344.08)"/><path class="cls-14" d="M677.26,365.47c.3,1.58-1.55,5.71-2,7.45s-.66,2.34-1.92,2.91-1.89-1-2.66-1.74c-1.86-1.83-3.91-1.41-5.94-.5-2.88,1.3-4.18,3.61-4.88,6.74a22.76,22.76,0,0,0,0,8.55c.26,1.87-.71,2.81-2.13,2a5.87,5.87,0,0,0-6-.24,15.42,15.42,0,0,0-6.87,6.73c-1.61,3.14-2.84,6.13-.53,9.53,1,1.42.11,2.84-1.63,3-1.48.12-3-.08-4.49-.05-3.29.05-6.23,2.77-6.17,5.67,0,2.58,2.82,5.2,5.82,5.47.33,0,.67,0,1,0,18.25.18,36.47,1.33,54.73,1a72.08,72.08,0,0,0,10.23-.82l.08,1.68q-33.7.07-67.4.14c-3.26,0-6.89-2.68-7.46-5.36-.82-3.9.65-7.35,4-9.14a20,20,0,0,1,3.54-1.5c1.38-.42,3.3.59,4.16-.74.61-.95.17-2.57.21-3.9.23-8.14,6.1-14,14.35-14.27,1.35,0,1.35-.13,1.11-1.58-.85-5,2-14.08,8-15.77,1.63-.45,3.18-.5,4.76-.78,1.35-.25,3.75.95,5.09-.74L675,368Z" transform="translate(-628.85 -344.08)"/><path class="cls-14" d="M704.9,387.31c-.62-.56-.39-.31-1.43-.9l-2.63-1.48-4-1.54a22.41,22.41,0,0,0-2.77-.72,12.43,12.43,0,0,0,1.75-2.2c1.46-3,3.35-5.88,3.17-9.44l.07-3.16c-.5-1.27.63-2.92-.92-3.94-1.06-4.36-2.68-8.31-7.21-10.21-1.5-1.47-3.7-2-5-3.71,3.75-.57,6.64.85,9.17,3.59A21.74,21.74,0,0,1,701,367.12c.35,4.2.46,8.25-1,12.25a1.56,1.56,0,0,0,.9,2.05c7.93,3.59,10.55,11,13.17,18.33,1.07,3,1.86,6.12,2.77,9.18-1.72,1.72-2-.1-2.64-1.06l-1.31-4.21a3.38,3.38,0,0,0,0-.71l-2-5.19a11.06,11.06,0,0,0-2.83-5.85l-1.09-1h0l-1.07-2.14" transform="translate(-628.85 -344.08)"/><path class="cls-14" d="M674.77,368.38c.84-1.67,1-2.28.7-3.45l-.31-2c-.31-2-1.1-2.76-3.15-3-4.06-.4-6.12-3.81-4.56-7.61a13.9,13.9,0,0,1,9.21-8.21c1.29-.39,2.2.45,3.25.84.33.12,1.14,0,.67.79a3.1,3.1,0,0,1-.67.73c-1,.87-2.23.46-3.35.47-1.61,0-2.42.15-3.89,1.87s-2.95,3.61-2.64,6.31c.25,2.24.53,1.58,3.24,2.21a4.56,4.56,0,0,1,2.08,1.07,7.87,7.87,0,0,1,2.62,6.15,22,22,0,0,1-1,3.17c-1,1.54.24-.81-1,.27" transform="translate(-628.85 -344.08)"/><path class="cls-14" d="M731.68,421.21a2.24,2.24,0,0,0,2.3-1.93c.49-4.42-2.22-7.6-7.15-8.46-.72,0-1.59.36-1.78-.8,0-.88.47-1.08,1.22-1a11.31,11.31,0,0,1,10.53,8.65,4.65,4.65,0,0,1-4.27,5.27c-3.15,0-6.3-.07-9.45-.11l1-1.69" transform="translate(-628.85 -344.08)"/><path class="cls-14" d="M724.06,421.1l-1,1.69c-6.39.33-12.77.28-19.15,0l-.08-1.68C711.2,420.52,717.32,420.89,724.06,421.1Z" transform="translate(-628.85 -344.08)"/><path class="cls-15" d="M691.05,353.76c4.52,1.91,6.15,5.86,7.2,10.21a2.15,2.15,0,0,1-2.21-1.65c-.87-2.78-1.73-5.45-4.76-6.72C691,355.48,691.11,354.4,691.05,353.76Z" transform="translate(-628.85 -344.08)"/><path class="cls-16" d="M699.1,371.08l.07-3.16" transform="translate(-628.85 -344.08)"/></svg>